<svg xmlns="http://www.w3.org/2000/svg" xmlns:xlink="http://www.w3.org/1999/xlink" width="500" zoomAndPan="magnify" viewBox="0 0 375 374.999991" height="500" preserveAspectRatio="xMidYMid meet" version="1.0"><defs><g/><clipPath id="4d1f360036"><path d="M 133 87 L 284.804688 87 L 284.804688 310.449219 L 133 310.449219 Z M 133 87 " clip-rule="nonzero"/></clipPath></defs><path fill="#5e17eb" d="M 277.792969 61.347656 C 277.59375 64.402344 275.460938 67 272.582031 68.042969 L 212.277344 89.910156 C 211.445312 90.210938 210.574219 90.363281 209.699219 90.363281 C 208.828125 90.363281 207.953125 90.210938 207.125 89.910156 L 151.007812 69.566406 C 149.234375 68.921875 148.371094 66.882812 149.199219 65.136719 C 149.917969 63.609375 151.753906 62.960938 153.339844 63.535156 L 209.320312 83.832031 C 209.566406 83.917969 209.835938 83.917969 210.078125 83.832031 L 270.613281 61.882812 C 271.210938 61.667969 271.34375 61.199219 271.34375 60.847656 C 271.347656 60.558594 271.261719 60.035156 270.632812 59.796875 L 210.09375 36.660156 C 209.84375 36.5625 209.558594 36.5625 209.304688 36.660156 L 167.445312 52.65625 C 168.933594 53.191406 170.460938 53.773438 172.019531 54.402344 C 194.230469 63.351562 209.445312 55.828125 214.917969 52.214844 C 215.457031 51.855469 216.070312 51.683594 216.683594 51.683594 C 217.574219 51.683594 218.460938 52.058594 219.09375 52.773438 C 220.402344 54.25 220.089844 56.539062 218.4375 57.621094 C 211.773438 61.992188 194.398438 70.386719 169.609375 60.398438 C 134.878906 46.40625 121.222656 58.410156 116.886719 64.382812 L 120.863281 66.796875 L 111.109375 82.535156 C 108.640625 86.519531 103.472656 87.847656 99.390625 85.546875 C 95.074219 83.113281 93.636719 77.582031 96.226562 73.351562 L 105.820312 57.675781 L 111.429688 61.078125 C 116.101562 54.613281 128.949219 42.726562 157.300781 49.617188 L 207.003906 30.621094 C 208.738281 29.957031 210.65625 29.957031 212.398438 30.621094 L 272.9375 53.761719 C 276.058594 54.953125 278.007812 57.964844 277.792969 61.347656 Z M 277.792969 61.347656 " fill-opacity="1" fill-rule="nonzero"/><g clip-path="url(#4d1f360036)"><path fill="#5e17eb" d="M 238.714844 87.742188 L 212.277344 97.324219 C 211.445312 97.625 210.574219 97.777344 209.699219 97.777344 C 208.828125 97.777344 207.953125 97.625 207.125 97.324219 L 179.761719 87.402344 C 167.4375 130.070312 133.683594 164.539062 133.683594 164.539062 C 143.417969 175.972656 152.96875 190.589844 161.910156 206.851562 L 189.015625 265.378906 C 194.070312 278.359375 202.167969 298.273438 205.914062 310.457031 L 205.070312 248.367188 C 205.488281 239.171875 205.507812 192.816406 205.273438 172.480469 C 202.320312 170.980469 200.292969 167.917969 200.292969 164.375 C 200.292969 159.417969 204.261719 155.394531 209.1875 155.292969 C 214.113281 155.394531 218.082031 159.417969 218.082031 164.375 C 218.082031 167.917969 216.054688 170.980469 213.101562 172.480469 C 212.867188 192.816406 212.886719 239.167969 213.304688 248.367188 L 212.460938 310.457031 C 216.207031 298.269531 224.304688 278.355469 229.359375 265.378906 L 256.464844 206.851562 C 265.40625 190.589844 274.957031 175.972656 284.691406 164.539062 C 284.695312 164.542969 251.117188 130.253906 238.714844 87.742188 Z M 238.714844 87.742188 " fill-opacity="1" fill-rule="nonzero"/></g><g fill="#8c52ff" fill-opacity="1"><g transform="translate(7.519426, 315.123911)"><g><path d="M 21.625 -15.617188 C 22.542969 -16.761719 23.15625 -18.332031 23.15625 -19.941406 C 23.15625 -23.578125 19.980469 -26.792969 16.074219 -26.792969 L 3.445312 -26.792969 C 2.984375 -26.792969 2.679688 -26.484375 2.679688 -26.027344 L 2.679688 -0.765625 C 2.679688 -0.304688 2.984375 0 3.445312 0 L 17.492188 0 C 21.777344 0 25.261719 -3.558594 25.261719 -7.617188 C 25.261719 -10.21875 23.84375 -12.746094 21.816406 -14.160156 C 21.242188 -14.582031 21.164062 -15.078125 21.625 -15.617188 Z M 9.757812 -11.597656 C 9.757812 -12.054688 10.066406 -12.363281 10.523438 -12.363281 L 15.003906 -12.363281 C 16.382812 -12.285156 17.492188 -10.296875 17.492188 -7.921875 C 17.492188 -5.511719 16.382812 -3.519531 15.003906 -3.445312 L 10.523438 -3.445312 C 10.066406 -3.445312 9.757812 -3.75 9.757812 -4.210938 Z M 13.203125 -23.347656 C 14.503906 -23.347656 15.347656 -21.816406 15.347656 -19.632812 C 15.347656 -17.375 14.46875 -15.808594 13.203125 -15.808594 L 10.523438 -15.808594 C 10.066406 -15.808594 9.757812 -16.113281 9.757812 -16.574219 L 9.757812 -22.582031 C 9.757812 -23.039062 10.066406 -23.347656 10.523438 -23.347656 Z M 13.203125 -23.347656 "/></g></g></g><g fill="#8c52ff" fill-opacity="1"><g transform="translate(40.238026, 315.123911)"><g><path d="M 4.441406 0 C 4.746094 0 5.050781 -0.191406 5.167969 -0.535156 L 7.117188 -6.429688 C 7.234375 -6.734375 7.539062 -6.964844 7.847656 -6.964844 L 14.8125 -6.964844 C 15.15625 -6.964844 15.460938 -6.734375 15.539062 -6.429688 L 17.492188 -0.535156 C 17.605469 -0.191406 17.910156 0 18.21875 0 L 24.113281 0 C 24.761719 0 25.03125 -0.421875 24.839844 -1.035156 L 16 -26.292969 C 15.882812 -26.601562 15.578125 -26.792969 15.269531 -26.792969 L 10.871094 -26.792969 C 10.5625 -26.792969 10.257812 -26.601562 10.140625 -26.292969 L 1.300781 -1.035156 C 1.109375 -0.421875 1.378906 0 2.027344 0 Z M 13.894531 -11.40625 C 14.085938 -10.792969 13.816406 -10.410156 13.164062 -10.410156 L 9.53125 -10.410156 C 8.878906 -10.410156 8.574219 -10.792969 8.804688 -11.40625 L 10.601562 -16.953125 C 11.023438 -18.292969 11.636719 -18.292969 12.054688 -16.953125 Z M 13.894531 -11.40625 "/></g></g></g><g fill="#8c52ff" fill-opacity="1"><g transform="translate(72.497453, 315.123911)"><g><path d="M 3.0625 -26.792969 C 2.601562 -26.792969 2.296875 -26.484375 2.296875 -26.027344 L 2.296875 -0.765625 C 2.296875 -0.304688 2.601562 0 3.0625 0 L 5.28125 0 C 5.742188 0 6.046875 -0.304688 6.046875 -0.765625 L 6.046875 -15.960938 C 6.046875 -17.605469 6.621094 -17.757812 7.464844 -16.34375 L 17.070312 -0.382812 C 17.222656 -0.152344 17.453125 0 17.71875 0 L 23.039062 0 C 23.5 0 23.804688 -0.304688 23.804688 -0.765625 L 23.804688 -26.027344 C 23.804688 -26.484375 23.5 -26.792969 23.039062 -26.792969 L 20.820312 -26.792969 C 20.359375 -26.792969 20.054688 -26.484375 20.054688 -26.027344 L 20.054688 -12.515625 C 20.054688 -10.871094 19.480469 -10.714844 18.640625 -12.132812 L 10.066406 -26.410156 C 9.914062 -26.636719 9.644531 -26.792969 9.414062 -26.792969 Z M 3.0625 -26.792969 "/></g></g></g><g fill="#8c52ff" fill-opacity="1"><g transform="translate(104.718614, 315.123911)"><g><path d="M 19.824219 -4.667969 C 19.824219 -4.476562 19.75 -4.285156 19.597656 -4.132812 C 18.753906 -3.445312 17.910156 -3.136719 17.144531 -3.136719 C 12.746094 -3.136719 9.722656 -7.273438 9.722656 -13.472656 C 9.722656 -19.632812 12.667969 -23.652344 17.261719 -23.652344 C 19.175781 -23.652344 20.933594 -22.925781 22.429688 -21.546875 C 22.8125 -21.203125 23.269531 -21.203125 23.613281 -21.546875 L 25.222656 -23.308594 C 25.488281 -23.652344 25.488281 -24.035156 25.183594 -24.339844 C 23.117188 -26.21875 19.597656 -27.441406 16.113281 -27.441406 C 8.191406 -27.441406 1.914062 -21.242188 1.914062 -13.433594 C 1.914062 -5.625 8.152344 0.652344 15.960938 0.652344 C 17.796875 0.652344 19.597656 0.113281 21.164062 -0.84375 C 21.585938 -1.070312 21.96875 -0.996094 22.238281 -0.613281 L 22.429688 -0.34375 C 22.582031 -0.152344 22.8125 0 23.078125 0 L 26.140625 0 C 26.601562 0 26.90625 -0.304688 26.90625 -0.765625 L 26.90625 -14.3125 C 26.90625 -14.773438 26.601562 -15.078125 26.140625 -15.078125 L 16.535156 -15.078125 C 16.074219 -15.078125 15.769531 -14.773438 15.769531 -14.3125 L 15.769531 -12.324219 C 15.769531 -11.863281 16.074219 -11.558594 16.535156 -11.558594 L 19.058594 -11.558594 C 19.519531 -11.558594 19.824219 -11.253906 19.824219 -10.792969 Z M 19.824219 -4.667969 "/></g></g></g><g fill="#8c52ff" fill-opacity="1"><g transform="translate(140.421794, 315.123911)"><g><path d="M 3.445312 -26.792969 C 2.984375 -26.792969 2.679688 -26.484375 2.679688 -26.027344 L 2.679688 -0.765625 C 2.679688 -0.304688 2.984375 0 3.445312 0 L 20.859375 0 C 21.316406 0 21.625 -0.304688 21.625 -0.765625 L 21.625 -2.679688 C 21.625 -3.136719 21.316406 -3.445312 20.859375 -3.445312 L 10.523438 -3.445312 C 10.066406 -3.445312 9.757812 -3.75 9.757812 -4.210938 L 9.757812 -26.027344 C 9.757812 -26.484375 9.453125 -26.792969 8.996094 -26.792969 Z M 3.445312 -26.792969 "/></g></g></g><g fill="#8c52ff" fill-opacity="1"><g transform="translate(169.12267, 315.123911)"><g><path d="M 4.441406 0 C 4.746094 0 5.050781 -0.191406 5.167969 -0.535156 L 7.117188 -6.429688 C 7.234375 -6.734375 7.539062 -6.964844 7.847656 -6.964844 L 14.8125 -6.964844 C 15.15625 -6.964844 15.460938 -6.734375 15.539062 -6.429688 L 17.492188 -0.535156 C 17.605469 -0.191406 17.910156 0 18.21875 0 L 24.113281 0 C 24.761719 0 25.03125 -0.421875 24.839844 -1.035156 L 16 -26.292969 C 15.882812 -26.601562 15.578125 -26.792969 15.269531 -26.792969 L 10.871094 -26.792969 C 10.5625 -26.792969 10.257812 -26.601562 10.140625 -26.292969 L 1.300781 -1.035156 C 1.109375 -0.421875 1.378906 0 2.027344 0 Z M 13.894531 -11.40625 C 14.085938 -10.792969 13.816406 -10.410156 13.164062 -10.410156 L 9.53125 -10.410156 C 8.878906 -10.410156 8.574219 -10.792969 8.804688 -11.40625 L 10.601562 -16.953125 C 11.023438 -18.292969 11.636719 -18.292969 12.054688 -16.953125 Z M 13.894531 -11.40625 "/></g></g></g><g fill="#8c52ff" fill-opacity="1"><g transform="translate(201.382092, 315.123911)"><g/></g></g><g fill="#8c52ff" fill-opacity="1"><g transform="translate(219.943041, 315.123911)"><g><path d="M 19.824219 -4.667969 C 19.824219 -4.476562 19.75 -4.285156 19.597656 -4.132812 C 18.753906 -3.445312 17.910156 -3.136719 17.144531 -3.136719 C 12.746094 -3.136719 9.722656 -7.273438 9.722656 -13.472656 C 9.722656 -19.632812 12.667969 -23.652344 17.261719 -23.652344 C 19.175781 -23.652344 20.933594 -22.925781 22.429688 -21.546875 C 22.8125 -21.203125 23.269531 -21.203125 23.613281 -21.546875 L 25.222656 -23.308594 C 25.488281 -23.652344 25.488281 -24.035156 25.183594 -24.339844 C 23.117188 -26.21875 19.597656 -27.441406 16.113281 -27.441406 C 8.191406 -27.441406 1.914062 -21.242188 1.914062 -13.433594 C 1.914062 -5.625 8.152344 0.652344 15.960938 0.652344 C 17.796875 0.652344 19.597656 0.113281 21.164062 -0.84375 C 21.585938 -1.070312 21.96875 -0.996094 22.238281 -0.613281 L 22.429688 -0.34375 C 22.582031 -0.152344 22.8125 0 23.078125 0 L 26.140625 0 C 26.601562 0 26.90625 -0.304688 26.90625 -0.765625 L 26.90625 -14.3125 C 26.90625 -14.773438 26.601562 -15.078125 26.140625 -15.078125 L 16.535156 -15.078125 C 16.074219 -15.078125 15.769531 -14.773438 15.769531 -14.3125 L 15.769531 -12.324219 C 15.769531 -11.863281 16.074219 -11.558594 16.535156 -11.558594 L 19.058594 -11.558594 C 19.519531 -11.558594 19.824219 -11.253906 19.824219 -10.792969 Z M 19.824219 -4.667969 "/></g></g></g><g fill="#8c52ff" fill-opacity="1"><g transform="translate(255.64622, 315.123911)"><g><path d="M 14.851562 -11.671875 C 15.308594 -11.671875 15.617188 -11.980469 15.617188 -12.4375 L 15.617188 -14.351562 C 15.617188 -14.8125 15.308594 -15.117188 14.851562 -15.117188 L 10.523438 -15.117188 C 10.066406 -15.117188 9.757812 -15.425781 9.757812 -15.882812 L 9.757812 -22.582031 C 9.757812 -23.039062 10.066406 -23.347656 10.523438 -23.347656 L 19.824219 -23.347656 C 20.285156 -23.347656 20.589844 -23.652344 20.589844 -24.113281 L 20.589844 -26.027344 C 20.589844 -26.484375 20.285156 -26.792969 19.824219 -26.792969 L 3.445312 -26.792969 C 2.984375 -26.792969 2.679688 -26.484375 2.679688 -26.027344 L 2.679688 -0.765625 C 2.679688 -0.304688 2.984375 0 3.445312 0 L 20.589844 0 C 21.050781 0 21.355469 -0.304688 21.355469 -0.765625 L 21.355469 -2.679688 C 21.355469 -3.136719 21.050781 -3.445312 20.589844 -3.445312 L 10.523438 -3.445312 C 10.066406 -3.445312 9.757812 -3.75 9.757812 -4.210938 L 9.757812 -10.90625 C 9.757812 -11.367188 10.066406 -11.671875 10.523438 -11.671875 Z M 14.851562 -11.671875 "/></g></g></g><g fill="#8c52ff" fill-opacity="1"><g transform="translate(284.461885, 315.123911)"><g><path d="M 14.851562 -11.671875 C 15.308594 -11.671875 15.617188 -11.980469 15.617188 -12.4375 L 15.617188 -14.351562 C 15.617188 -14.8125 15.308594 -15.117188 14.851562 -15.117188 L 10.523438 -15.117188 C 10.066406 -15.117188 9.757812 -15.425781 9.757812 -15.882812 L 9.757812 -22.582031 C 9.757812 -23.039062 10.066406 -23.347656 10.523438 -23.347656 L 19.824219 -23.347656 C 20.285156 -23.347656 20.589844 -23.652344 20.589844 -24.113281 L 20.589844 -26.027344 C 20.589844 -26.484375 20.285156 -26.792969 19.824219 -26.792969 L 3.445312 -26.792969 C 2.984375 -26.792969 2.679688 -26.484375 2.679688 -26.027344 L 2.679688 -0.765625 C 2.679688 -0.304688 2.984375 0 3.445312 0 L 20.589844 0 C 21.050781 0 21.355469 -0.304688 21.355469 -0.765625 L 21.355469 -2.679688 C 21.355469 -3.136719 21.050781 -3.445312 20.589844 -3.445312 L 10.523438 -3.445312 C 10.066406 -3.445312 9.757812 -3.75 9.757812 -4.210938 L 9.757812 -10.90625 C 9.757812 -11.367188 10.066406 -11.671875 10.523438 -11.671875 Z M 14.851562 -11.671875 "/></g></g></g><g fill="#8c52ff" fill-opacity="1"><g transform="translate(313.277567, 315.123911)"><g><path d="M 11.097656 -17.492188 C 10.296875 -16.574219 9.757812 -16.761719 9.757812 -17.988281 L 9.757812 -26.027344 C 9.757812 -26.484375 9.453125 -26.792969 8.996094 -26.792969 L 3.445312 -26.792969 C 2.984375 -26.792969 2.679688 -26.484375 2.679688 -26.027344 L 2.679688 -0.765625 C 2.679688 -0.304688 2.984375 0 3.445312 0 L 8.996094 0 C 9.453125 0 9.757812 -0.304688 9.757812 -0.765625 L 9.757812 -10.601562 C 9.757812 -10.792969 9.835938 -10.984375 9.949219 -11.136719 L 10.257812 -11.480469 C 10.5625 -11.828125 10.90625 -11.789062 11.136719 -11.40625 L 17.757812 -0.382812 C 17.910156 -0.152344 18.140625 0 18.410156 0 L 24.800781 0 C 25.605469 0 25.871094 -0.460938 25.453125 -1.148438 L 15.84375 -17.070312 C 15.691406 -17.375 15.730469 -17.71875 15.960938 -17.988281 L 22.503906 -25.527344 C 23.15625 -26.292969 22.925781 -26.792969 21.929688 -26.792969 L 19.558594 -26.792969 C 19.367188 -26.792969 19.136719 -26.675781 18.984375 -26.523438 Z M 11.097656 -17.492188 "/></g></g></g><g fill="#8c52ff" fill-opacity="1"><g transform="translate(346.493587, 315.123911)"><g><path d="M 8.304688 -21.507812 C 8.304688 -22.964844 9.949219 -23.769531 12.972656 -23.769531 C 15.578125 -23.769531 17.222656 -23.195312 19.058594 -21.507812 C 19.40625 -21.203125 19.863281 -21.203125 20.171875 -21.546875 L 21.816406 -23.308594 C 22.082031 -23.652344 22.082031 -24.035156 21.777344 -24.339844 C 19.671875 -26.253906 16.34375 -27.441406 12.667969 -27.441406 C 6.160156 -27.441406 1.226562 -23.730469 1.226562 -18.832031 C 1.261719 -10.332031 15.921875 -10.105469 15.960938 -5.28125 C 15.960938 -3.867188 14.660156 -3.0625 11.789062 -3.0625 C 8.574219 -3.0625 6.085938 -4.058594 4.285156 -6.160156 C 3.980469 -6.507812 3.597656 -6.582031 3.214844 -6.316406 L 1.570312 -5.207031 C 1.226562 -4.9375 1.109375 -4.515625 1.417969 -4.171875 C 3.789062 -1.035156 7.539062 0.652344 11.789062 0.652344 C 18.292969 0.652344 23.003906 -3.214844 23.003906 -8.152344 C 23.003906 -16.878906 8.265625 -17.222656 8.304688 -21.507812 Z M 8.304688 -21.507812 "/></g></g></g></svg>