<svg xmlns="http://www.w3.org/2000/svg" xmlns:xlink="http://www.w3.org/1999/xlink" width="500" zoomAndPan="magnify" viewBox="0 0 375 149.999998" height="200" preserveAspectRatio="xMidYMid meet" version="1.0"><defs><g/><clipPath id="847fdceea1"><path d="M 25 3.355469 L 101 3.355469 L 101 31 L 25 31 Z M 25 3.355469 " clip-rule="nonzero"/></clipPath><clipPath id="2af71586ba"><path d="M 3.355469 34 L 122.605469 34 L 122.605469 110 L 3.355469 110 Z M 3.355469 34 " clip-rule="nonzero"/></clipPath><clipPath id="c444282e3f"><path d="M 8 41 L 121 41 L 121 149.605469 L 8 149.605469 Z M 8 41 " clip-rule="nonzero"/></clipPath></defs><g clip-path="url(#847fdceea1)"><path fill="#ff914d" d="M 100.9375 3.472656 L 25.027344 30.503906 L 100.9375 20.277344 Z M 100.9375 3.472656 " fill-opacity="1" fill-rule="evenodd"/></g><path fill="#ff914d" d="M 111.007812 34.589844 L 111.007812 23.667969 L 41.980469 32.867188 Z M 111.007812 34.589844 " fill-opacity="1" fill-rule="evenodd"/><g clip-path="url(#2af71586ba)"><path fill="#ff914d" d="M 120.761719 38.234375 L 120.25 38.300781 C 99.152344 39.769531 64.480469 38.617188 19.609375 34.59375 L 19.609375 77.152344 C 14.507812 82.902344 6.671875 94.085938 3.355469 109.292969 C 35.800781 62.390625 69.898438 52.742188 120.695312 38.617188 L 120.761719 38.617188 L 122.609375 38.109375 C 121.972656 38.171875 121.398438 38.234375 120.761719 38.234375 Z M 120.761719 38.234375 " fill-opacity="1" fill-rule="evenodd"/></g><g clip-path="url(#c444282e3f)"><path fill="#0097b2" d="M 8.710938 149.488281 C 27.832031 112.617188 56.195312 84.882812 98.769531 78.175781 C 66.519531 85.074219 46.636719 111.148438 33.761719 139.839844 C 47.144531 122.332031 63.84375 108.910156 84.558594 101.308594 C 67.09375 111.148438 54.347656 125.207031 47.65625 144.121094 C 50.585938 140.09375 53.644531 135.75 57.023438 132.109375 L 120.761719 136.007812 L 120.761719 41.300781 C 65.753906 59.515625 27.449219 94.722656 8.710938 149.488281 Z M 8.710938 149.488281 " fill-opacity="1" fill-rule="evenodd"/></g><g fill="#ffffff" fill-opacity="1"><g transform="translate(137.376982, 79.290939)"><g><path d="M 22.703125 -5.265625 L 23.078125 -4.75 L 22.65625 0 L 3.671875 0 L 4 -9.03125 L 3.671875 -30.28125 L 22.84375 -30.28125 L 23.21875 -29.765625 L 22.75 -25.015625 L 15.515625 -25.25 L 10.0625 -25.203125 L 9.921875 -17.90625 L 15.140625 -17.8125 L 20.078125 -17.953125 L 20.453125 -17.484375 L 20.03125 -12.734375 L 14.671875 -12.875 L 9.828125 -12.828125 L 9.78125 -9.59375 L 9.921875 -5.03125 L 15.234375 -4.984375 Z M 22.703125 -5.265625 "/></g></g></g><g fill="#ffffff" fill-opacity="1"><g transform="translate(161.301976, 79.290939)"><g><path d="M 27.453125 0 L 20.96875 0 L 20.21875 -3.953125 L 19.421875 -6.765625 L 13.5 -6.90625 L 8.28125 -6.765625 L 7.46875 -4.28125 L 6.671875 0 L 0.375 0 L 10.625 -30.28125 L 18.1875 -30.28125 Z M 18.046875 -11.703125 L 14.484375 -24.3125 L 14.0625 -24.3125 L 9.921875 -11.703125 L 13.96875 -11.609375 Z M 18.046875 -11.703125 "/></g></g></g><g fill="#ffffff" fill-opacity="1"><g transform="translate(189.504324, 79.290939)"><g><path d="M 13.40625 -30.65625 C 15.96875 -30.65625 18.519531 -30.140625 21.0625 -29.109375 L 20.03125 -23.609375 L 19.09375 -23.21875 C 18.019531 -23.976562 16.910156 -24.578125 15.765625 -25.015625 C 14.628906 -25.453125 13.585938 -25.671875 12.640625 -25.671875 C 11.390625 -25.671875 10.390625 -25.332031 9.640625 -24.65625 C 8.890625 -23.988281 8.515625 -23.210938 8.515625 -22.328125 C 8.515625 -21.421875 8.925781 -20.65625 9.75 -20.03125 C 10.582031 -19.40625 11.894531 -18.664062 13.6875 -17.8125 C 15.40625 -17.03125 16.804688 -16.300781 17.890625 -15.625 C 18.972656 -14.957031 19.894531 -14.070312 20.65625 -12.96875 C 21.425781 -11.875 21.8125 -10.53125 21.8125 -8.9375 C 21.8125 -7.207031 21.34375 -5.628906 20.40625 -4.203125 C 19.46875 -2.773438 18.132812 -1.644531 16.40625 -0.8125 C 14.6875 0.0078125 12.695312 0.421875 10.4375 0.421875 C 7.457031 0.421875 4.460938 -0.21875 1.453125 -1.5 L 2.34375 -7.421875 L 3.0625 -7.796875 C 4.3125 -6.703125 5.679688 -5.863281 7.171875 -5.28125 C 8.660156 -4.707031 9.984375 -4.421875 11.140625 -4.421875 C 12.523438 -4.421875 13.597656 -4.753906 14.359375 -5.421875 C 15.128906 -6.097656 15.515625 -6.910156 15.515625 -7.859375 C 15.515625 -8.859375 15.097656 -9.671875 14.265625 -10.296875 C 13.429688 -10.921875 12.09375 -11.671875 10.25 -12.546875 C 8.550781 -13.304688 7.171875 -14.015625 6.109375 -14.671875 C 5.046875 -15.328125 4.132812 -16.203125 3.375 -17.296875 C 2.625 -18.398438 2.25 -19.734375 2.25 -21.296875 C 2.25 -23.054688 2.71875 -24.644531 3.65625 -26.0625 C 4.601562 -27.488281 5.921875 -28.609375 7.609375 -29.421875 C 9.304688 -30.242188 11.238281 -30.65625 13.40625 -30.65625 Z M 13.40625 -30.65625 "/></g></g></g><g fill="#ffffff" fill-opacity="1"><g transform="translate(212.912275, 79.290939)"><g><path d="M 22.984375 -29.765625 L 22.609375 -25.015625 L 16.921875 -25.296875 L 15.046875 -25.296875 L 14.8125 -9.59375 L 15.09375 0 L 8.703125 0 L 9.03125 -9.03125 L 8.796875 -25.296875 L 6.90625 -25.296875 L 1.125 -25.015625 L 0.703125 -25.53125 L 1.125 -30.28125 L 22.609375 -30.28125 Z M 22.984375 -29.765625 "/></g></g></g><g fill="#ffffff" fill-opacity="1"><g transform="translate(236.555252, 79.290939)"><g/></g></g><g fill="#ffffff" fill-opacity="1"><g transform="translate(243.652843, 79.290939)"><g><path d="M 15.84375 -30.46875 C 20.226562 -30.46875 23.597656 -29.242188 25.953125 -26.796875 C 28.304688 -24.347656 29.484375 -20.835938 29.484375 -16.265625 C 29.484375 -10.910156 28.164062 -6.804688 25.53125 -3.953125 C 22.894531 -1.097656 19.132812 0.328125 14.25 0.328125 C 12.769531 0.328125 11.003906 0.296875 8.953125 0.234375 C 6.898438 0.171875 5.140625 0.09375 3.671875 0 L 4 -9.03125 L 3.671875 -30.28125 Z M 15.375 -4.609375 C 20.351562 -4.609375 22.84375 -8.007812 22.84375 -14.8125 C 22.84375 -18.507812 22.238281 -21.195312 21.03125 -22.875 C 19.832031 -24.550781 17.945312 -25.390625 15.375 -25.390625 C 13.707031 -25.390625 11.9375 -25.3125 10.0625 -25.15625 L 9.78125 -9.59375 L 9.921875 -4.9375 C 12.117188 -4.71875 13.9375 -4.609375 15.375 -4.609375 Z M 15.375 -4.609375 "/></g></g></g><g fill="#ffffff" fill-opacity="1"><g transform="translate(274.440413, 79.290939)"><g><path d="M 22.703125 -5.265625 L 23.078125 -4.75 L 22.65625 0 L 3.671875 0 L 4 -9.03125 L 3.671875 -30.28125 L 22.84375 -30.28125 L 23.21875 -29.765625 L 22.75 -25.015625 L 15.515625 -25.25 L 10.0625 -25.203125 L 9.921875 -17.90625 L 15.140625 -17.8125 L 20.078125 -17.953125 L 20.453125 -17.484375 L 20.03125 -12.734375 L 14.671875 -12.875 L 9.828125 -12.828125 L 9.78125 -9.59375 L 9.921875 -5.03125 L 15.234375 -4.984375 Z M 22.703125 -5.265625 "/></g></g></g><g fill="#ffffff" fill-opacity="1"><g transform="translate(298.365407, 79.290939)"><g><path d="M 20.265625 -4.75 L 19.84375 0 L 3.484375 0 L 3.8125 -9.03125 L 3.484375 -30.28125 L 9.96875 -30.28125 L 9.59375 -9.59375 L 9.734375 -5.265625 L 19.890625 -5.265625 Z M 20.265625 -4.75 "/></g></g></g><g fill="#ffffff" fill-opacity="1"><g transform="translate(318.718105, 79.290939)"><g><path d="M 22.984375 -29.765625 L 22.609375 -25.015625 L 16.921875 -25.296875 L 15.046875 -25.296875 L 14.8125 -9.59375 L 15.09375 0 L 8.703125 0 L 9.03125 -9.03125 L 8.796875 -25.296875 L 6.90625 -25.296875 L 1.125 -25.015625 L 0.703125 -25.53125 L 1.125 -30.28125 L 22.609375 -30.28125 Z M 22.984375 -29.765625 "/></g></g></g><g fill="#ffffff" fill-opacity="1"><g transform="translate(342.36107, 79.290939)"><g><path d="M 27.453125 0 L 20.96875 0 L 20.21875 -3.953125 L 19.421875 -6.765625 L 13.5 -6.90625 L 8.28125 -6.765625 L 7.46875 -4.28125 L 6.671875 0 L 0.375 0 L 10.625 -30.28125 L 18.1875 -30.28125 Z M 18.046875 -11.703125 L 14.484375 -24.3125 L 14.0625 -24.3125 L 9.921875 -11.703125 L 13.96875 -11.609375 Z M 18.046875 -11.703125 "/></g></g></g><g fill="#d9d9d9" fill-opacity="1"><g transform="translate(139.37087, 106.639587)"><g><path d="M 1.09375 -11.90625 L 1.796875 -11.90625 L 1.796875 -3.484375 C 1.796875 -3.085938 1.859375 -2.710938 1.984375 -2.359375 C 2.109375 -2.015625 2.28125 -1.707031 2.5 -1.4375 C 2.726562 -1.175781 3 -0.972656 3.3125 -0.828125 C 3.625 -0.679688 3.960938 -0.609375 4.328125 -0.609375 L 6.640625 -0.609375 L 6.640625 0 L 4.125 0 C 3.71875 0 3.328125 -0.0820312 2.953125 -0.25 C 2.585938 -0.425781 2.265625 -0.660156 1.984375 -0.953125 C 1.710938 -1.253906 1.492188 -1.613281 1.328125 -2.03125 C 1.171875 -2.457031 1.09375 -2.925781 1.09375 -3.4375 Z M 1.09375 -11.90625 "/></g></g></g><g fill="#d9d9d9" fill-opacity="1"><g transform="translate(146.575815, 106.639587)"><g><path d="M 2.65625 -2.34375 L 2.25 -2.890625 L 7.421875 -6.390625 C 7.128906 -6.765625 6.757812 -7.0625 6.3125 -7.28125 C 5.863281 -7.5 5.367188 -7.609375 4.828125 -7.609375 C 4.328125 -7.609375 3.863281 -7.515625 3.4375 -7.328125 C 3.019531 -7.148438 2.65625 -6.894531 2.34375 -6.5625 C 2.03125 -6.226562 1.78125 -5.84375 1.59375 -5.40625 C 1.414062 -4.96875 1.328125 -4.492188 1.328125 -3.984375 C 1.328125 -3.492188 1.414062 -3.03125 1.59375 -2.59375 C 1.78125 -2.164062 2.03125 -1.789062 2.34375 -1.46875 C 2.664062 -1.15625 3.035156 -0.90625 3.453125 -0.71875 C 3.878906 -0.53125 4.335938 -0.4375 4.828125 -0.4375 C 5.304688 -0.4375 5.753906 -0.523438 6.171875 -0.703125 C 6.585938 -0.890625 6.957031 -1.132812 7.28125 -1.4375 C 7.601562 -1.75 7.859375 -2.109375 8.046875 -2.515625 C 8.234375 -2.929688 8.335938 -3.378906 8.359375 -3.859375 L 9.046875 -3.859375 C 9.023438 -3.273438 8.898438 -2.738281 8.671875 -2.25 C 8.441406 -1.757812 8.140625 -1.332031 7.765625 -0.96875 C 7.390625 -0.613281 6.960938 -0.332031 6.484375 -0.125 C 6.003906 0.0703125 5.5 0.171875 4.96875 0.171875 C 4.332031 0.171875 3.75 0.0664062 3.21875 -0.140625 C 2.695312 -0.359375 2.242188 -0.65625 1.859375 -1.03125 C 1.472656 -1.40625 1.171875 -1.847656 0.953125 -2.359375 C 0.742188 -2.867188 0.640625 -3.421875 0.640625 -4.015625 C 0.640625 -4.585938 0.742188 -5.128906 0.953125 -5.640625 C 1.171875 -6.160156 1.460938 -6.609375 1.828125 -6.984375 C 2.203125 -7.367188 2.644531 -7.671875 3.15625 -7.890625 C 3.664062 -8.117188 4.222656 -8.234375 4.828125 -8.234375 C 5.609375 -8.234375 6.3125 -8.050781 6.9375 -7.6875 C 7.5625 -7.320312 8.054688 -6.84375 8.421875 -6.25 Z M 2.65625 -2.34375 "/></g></g></g><g fill="#d9d9d9" fill-opacity="1"><g transform="translate(156.618449, 106.639587)"><g><path d="M 8.4375 0 L 7.78125 0 L 7.78125 -4.078125 C 7.78125 -4.535156 7.695312 -4.972656 7.53125 -5.390625 C 7.375 -5.816406 7.148438 -6.191406 6.859375 -6.515625 C 6.566406 -6.847656 6.21875 -7.113281 5.8125 -7.3125 C 5.414062 -7.507812 4.976562 -7.609375 4.5 -7.609375 C 4.0625 -7.609375 3.644531 -7.507812 3.25 -7.3125 C 2.863281 -7.125 2.519531 -6.867188 2.21875 -6.546875 C 1.925781 -6.222656 1.691406 -5.84375 1.515625 -5.40625 C 1.347656 -4.976562 1.265625 -4.519531 1.265625 -4.03125 C 1.265625 -3.53125 1.347656 -3.0625 1.515625 -2.625 C 1.691406 -2.195312 1.929688 -1.816406 2.234375 -1.484375 C 2.535156 -1.160156 2.878906 -0.90625 3.265625 -0.71875 C 3.660156 -0.53125 4.070312 -0.4375 4.5 -0.4375 C 5.050781 -0.4375 5.515625 -0.535156 5.890625 -0.734375 C 6.265625 -0.929688 6.640625 -1.222656 7.015625 -1.609375 L 7.015625 -0.84375 C 6.585938 -0.488281 6.171875 -0.226562 5.765625 -0.0625 C 5.359375 0.09375 4.9375 0.171875 4.5 0.171875 C 3.945312 0.171875 3.429688 0.0664062 2.953125 -0.140625 C 2.472656 -0.359375 2.054688 -0.65625 1.703125 -1.03125 C 1.347656 -1.40625 1.070312 -1.847656 0.875 -2.359375 C 0.675781 -2.867188 0.578125 -3.425781 0.578125 -4.03125 C 0.578125 -4.613281 0.675781 -5.160156 0.875 -5.671875 C 1.070312 -6.191406 1.347656 -6.640625 1.703125 -7.015625 C 2.054688 -7.390625 2.46875 -7.6875 2.9375 -7.90625 C 3.414062 -8.125 3.9375 -8.234375 4.5 -8.234375 C 5.070312 -8.234375 5.597656 -8.117188 6.078125 -7.890625 C 6.554688 -7.671875 6.96875 -7.375 7.3125 -7 C 7.664062 -6.625 7.941406 -6.1875 8.140625 -5.6875 C 8.335938 -5.1875 8.4375 -4.65625 8.4375 -4.09375 Z M 8.4375 0 "/></g></g></g><g fill="#d9d9d9" fill-opacity="1"><g transform="translate(166.661082, 106.639587)"><g><path d="M 1.015625 -8.0625 L 1.671875 -8.0625 L 1.671875 -6.515625 L 1.703125 -6.515625 C 1.847656 -6.816406 2.023438 -7.066406 2.234375 -7.265625 C 2.441406 -7.460938 2.65625 -7.617188 2.875 -7.734375 C 3.09375 -7.859375 3.300781 -7.941406 3.5 -7.984375 C 3.695312 -8.035156 3.859375 -8.0625 3.984375 -8.0625 L 4.828125 -8.0625 L 4.828125 -7.453125 L 4.046875 -7.453125 C 3.921875 -7.453125 3.773438 -7.425781 3.609375 -7.375 C 3.441406 -7.320312 3.289062 -7.253906 3.15625 -7.171875 C 2.988281 -7.066406 2.8125 -6.925781 2.625 -6.75 C 2.445312 -6.582031 2.285156 -6.375 2.140625 -6.125 C 2.003906 -5.875 1.890625 -5.59375 1.796875 -5.28125 C 1.710938 -4.976562 1.671875 -4.644531 1.671875 -4.28125 L 1.671875 0 L 1.015625 0 Z M 1.015625 -8.0625 "/></g></g></g><g fill="#d9d9d9" fill-opacity="1"><g transform="translate(171.979904, 106.639587)"><g><path d="M 7.484375 0 L 6.828125 0 L 6.828125 -4.875 C 6.828125 -5.25 6.765625 -5.601562 6.640625 -5.9375 C 6.515625 -6.269531 6.335938 -6.554688 6.109375 -6.796875 C 5.878906 -7.046875 5.601562 -7.242188 5.28125 -7.390625 C 4.96875 -7.535156 4.625 -7.609375 4.25 -7.609375 C 3.863281 -7.609375 3.507812 -7.535156 3.1875 -7.390625 C 2.875 -7.253906 2.601562 -7.0625 2.375 -6.8125 C 2.15625 -6.5625 1.984375 -6.269531 1.859375 -5.9375 C 1.734375 -5.601562 1.671875 -5.25 1.671875 -4.875 L 1.671875 0 L 1.015625 0 L 1.015625 -4.984375 C 1.015625 -5.429688 1.09375 -5.847656 1.25 -6.234375 C 1.414062 -6.628906 1.640625 -6.972656 1.921875 -7.265625 C 2.203125 -7.566406 2.539062 -7.800781 2.9375 -7.96875 C 3.332031 -8.144531 3.769531 -8.234375 4.25 -8.234375 C 4.726562 -8.234375 5.164062 -8.144531 5.5625 -7.96875 C 5.957031 -7.800781 6.296875 -7.566406 6.578125 -7.265625 C 6.859375 -6.960938 7.078125 -6.613281 7.234375 -6.21875 C 7.398438 -5.832031 7.484375 -5.421875 7.484375 -4.984375 Z M 7.484375 0 "/></g></g></g><g fill="#d9d9d9" fill-opacity="1"><g transform="translate(181.070972, 106.639587)"><g><path d="M 2.390625 -10.34375 C 2.390625 -10.1875 2.34375 -10.0625 2.25 -9.96875 C 2.15625 -9.875 2.035156 -9.828125 1.890625 -9.828125 C 1.742188 -9.828125 1.617188 -9.875 1.515625 -9.96875 C 1.421875 -10.0625 1.375 -10.1875 1.375 -10.34375 C 1.375 -10.488281 1.421875 -10.609375 1.515625 -10.703125 C 1.617188 -10.796875 1.742188 -10.84375 1.890625 -10.84375 C 2.035156 -10.84375 2.15625 -10.796875 2.25 -10.703125 C 2.34375 -10.609375 2.390625 -10.488281 2.390625 -10.34375 Z M 1.5625 -8.0625 L 2.203125 -8.0625 L 2.203125 0 L 1.5625 0 Z M 1.5625 -8.0625 "/></g></g></g><g fill="#d9d9d9" fill-opacity="1"><g transform="translate(185.438229, 106.639587)"><g><path d="M 7.484375 0 L 6.828125 0 L 6.828125 -4.875 C 6.828125 -5.25 6.765625 -5.601562 6.640625 -5.9375 C 6.515625 -6.269531 6.335938 -6.554688 6.109375 -6.796875 C 5.878906 -7.046875 5.601562 -7.242188 5.28125 -7.390625 C 4.96875 -7.535156 4.625 -7.609375 4.25 -7.609375 C 3.863281 -7.609375 3.507812 -7.535156 3.1875 -7.390625 C 2.875 -7.253906 2.601562 -7.0625 2.375 -6.8125 C 2.15625 -6.5625 1.984375 -6.269531 1.859375 -5.9375 C 1.734375 -5.601562 1.671875 -5.25 1.671875 -4.875 L 1.671875 0 L 1.015625 0 L 1.015625 -4.984375 C 1.015625 -5.429688 1.09375 -5.847656 1.25 -6.234375 C 1.414062 -6.628906 1.640625 -6.972656 1.921875 -7.265625 C 2.203125 -7.566406 2.539062 -7.800781 2.9375 -7.96875 C 3.332031 -8.144531 3.769531 -8.234375 4.25 -8.234375 C 4.726562 -8.234375 5.164062 -8.144531 5.5625 -7.96875 C 5.957031 -7.800781 6.296875 -7.566406 6.578125 -7.265625 C 6.859375 -6.960938 7.078125 -6.613281 7.234375 -6.21875 C 7.398438 -5.832031 7.484375 -5.421875 7.484375 -4.984375 Z M 7.484375 0 "/></g></g></g><g fill="#d9d9d9" fill-opacity="1"><g transform="translate(194.529295, 106.639587)"><g><path d="M 8.4375 -0.03125 C 8.4375 0.539062 8.335938 1.066406 8.140625 1.546875 C 7.953125 2.035156 7.679688 2.445312 7.328125 2.78125 C 6.972656 3.125 6.546875 3.390625 6.046875 3.578125 C 5.546875 3.773438 4.992188 3.875 4.390625 3.875 C 3.578125 3.875 2.800781 3.738281 2.0625 3.46875 L 2.265625 2.859375 C 2.566406 2.984375 2.894531 3.082031 3.25 3.15625 C 3.613281 3.226562 3.960938 3.265625 4.296875 3.265625 C 5.535156 3.265625 6.425781 2.941406 6.96875 2.296875 C 7.507812 1.660156 7.78125 0.742188 7.78125 -0.453125 L 7.78125 -4.078125 C 7.78125 -4.535156 7.703125 -4.972656 7.546875 -5.390625 C 7.390625 -5.816406 7.164062 -6.191406 6.875 -6.515625 C 6.582031 -6.847656 6.234375 -7.113281 5.828125 -7.3125 C 5.429688 -7.507812 4.988281 -7.609375 4.5 -7.609375 C 4.070312 -7.609375 3.660156 -7.507812 3.265625 -7.3125 C 2.867188 -7.125 2.519531 -6.867188 2.21875 -6.546875 C 1.925781 -6.222656 1.691406 -5.84375 1.515625 -5.40625 C 1.347656 -4.976562 1.265625 -4.519531 1.265625 -4.03125 C 1.265625 -3.519531 1.351562 -3.046875 1.53125 -2.609375 C 1.707031 -2.171875 1.945312 -1.789062 2.25 -1.46875 C 2.550781 -1.144531 2.894531 -0.890625 3.28125 -0.703125 C 3.675781 -0.523438 4.082031 -0.4375 4.5 -0.4375 C 5.050781 -0.4375 5.515625 -0.535156 5.890625 -0.734375 C 6.265625 -0.929688 6.640625 -1.222656 7.015625 -1.609375 L 7.015625 -0.84375 C 6.585938 -0.488281 6.171875 -0.226562 5.765625 -0.0625 C 5.359375 0.09375 4.9375 0.171875 4.5 0.171875 C 3.957031 0.171875 3.445312 0.0664062 2.96875 -0.140625 C 2.488281 -0.347656 2.070312 -0.640625 1.71875 -1.015625 C 1.363281 -1.390625 1.082031 -1.832031 0.875 -2.34375 C 0.675781 -2.851562 0.578125 -3.414062 0.578125 -4.03125 C 0.578125 -4.613281 0.675781 -5.160156 0.875 -5.671875 C 1.070312 -6.191406 1.347656 -6.640625 1.703125 -7.015625 C 2.054688 -7.390625 2.46875 -7.6875 2.9375 -7.90625 C 3.414062 -8.125 3.9375 -8.234375 4.5 -8.234375 C 5.070312 -8.234375 5.597656 -8.117188 6.078125 -7.890625 C 6.554688 -7.671875 6.96875 -7.375 7.3125 -7 C 7.664062 -6.625 7.941406 -6.1875 8.140625 -5.6875 C 8.335938 -5.1875 8.4375 -4.65625 8.4375 -4.09375 Z M 8.4375 -0.03125 "/></g></g></g><g fill="#d9d9d9" fill-opacity="1"><g transform="translate(204.571931, 106.639587)"><g/></g></g><g fill="#d9d9d9" fill-opacity="1"><g transform="translate(209.890756, 106.639587)"><g><path d="M 6.875 -0.953125 C 6.9375 -0.722656 7.007812 -0.609375 7.09375 -0.609375 C 7.132812 -0.609375 7.171875 -0.65625 7.203125 -0.75 C 7.242188 -0.851562 7.273438 -0.941406 7.296875 -1.015625 L 10.265625 -11.0625 C 10.335938 -11.28125 10.398438 -11.457031 10.453125 -11.59375 C 10.515625 -11.726562 10.582031 -11.832031 10.65625 -11.90625 C 10.726562 -11.976562 10.8125 -12.03125 10.90625 -12.0625 C 11.007812 -12.09375 11.144531 -12.109375 11.3125 -12.109375 C 11.625 -12.109375 11.835938 -11.988281 11.953125 -11.75 C 12.066406 -11.507812 12.148438 -11.171875 12.203125 -10.734375 L 13.671875 0 L 12.953125 0 L 11.484375 -10.84375 C 11.453125 -11.101562 11.414062 -11.265625 11.375 -11.328125 C 11.332031 -11.390625 11.285156 -11.421875 11.234375 -11.421875 C 11.140625 -11.421875 11.078125 -11.375 11.046875 -11.28125 C 11.015625 -11.1875 10.988281 -11.101562 10.96875 -11.03125 L 8.078125 -1.171875 C 7.992188 -0.910156 7.925781 -0.691406 7.875 -0.515625 C 7.820312 -0.347656 7.757812 -0.21875 7.6875 -0.125 C 7.625 -0.03125 7.546875 0.0351562 7.453125 0.078125 C 7.359375 0.117188 7.234375 0.140625 7.078125 0.140625 C 6.921875 0.140625 6.796875 0.125 6.703125 0.09375 C 6.617188 0.0625 6.539062 0.00390625 6.46875 -0.078125 C 6.40625 -0.171875 6.34375 -0.300781 6.28125 -0.46875 C 6.21875 -0.644531 6.144531 -0.878906 6.0625 -1.171875 L 3.203125 -10.984375 C 3.160156 -11.109375 3.117188 -11.210938 3.078125 -11.296875 C 3.046875 -11.378906 2.988281 -11.421875 2.90625 -11.421875 C 2.863281 -11.421875 2.816406 -11.390625 2.765625 -11.328125 C 2.722656 -11.265625 2.691406 -11.132812 2.671875 -10.9375 L 1.1875 0 L 0.46875 0 L 1.953125 -10.859375 C 1.972656 -11.003906 2 -11.15625 2.03125 -11.3125 C 2.0625 -11.46875 2.109375 -11.601562 2.171875 -11.71875 C 2.234375 -11.832031 2.316406 -11.925781 2.421875 -12 C 2.523438 -12.070312 2.664062 -12.109375 2.84375 -12.109375 C 3.007812 -12.109375 3.144531 -12.085938 3.25 -12.046875 C 3.363281 -12.015625 3.457031 -11.953125 3.53125 -11.859375 C 3.613281 -11.765625 3.6875 -11.625 3.75 -11.4375 C 3.8125 -11.257812 3.890625 -11.03125 3.984375 -10.75 Z M 6.875 -0.953125 "/></g></g></g><g fill="#d9d9d9" fill-opacity="1"><g transform="translate(224.640221, 106.639587)"><g><path d="M 8.4375 0 L 7.78125 0 L 7.78125 -4.078125 C 7.78125 -4.535156 7.695312 -4.972656 7.53125 -5.390625 C 7.375 -5.816406 7.148438 -6.191406 6.859375 -6.515625 C 6.566406 -6.847656 6.21875 -7.113281 5.8125 -7.3125 C 5.414062 -7.507812 4.976562 -7.609375 4.5 -7.609375 C 4.0625 -7.609375 3.644531 -7.507812 3.25 -7.3125 C 2.863281 -7.125 2.519531 -6.867188 2.21875 -6.546875 C 1.925781 -6.222656 1.691406 -5.84375 1.515625 -5.40625 C 1.347656 -4.976562 1.265625 -4.519531 1.265625 -4.03125 C 1.265625 -3.53125 1.347656 -3.0625 1.515625 -2.625 C 1.691406 -2.195312 1.929688 -1.816406 2.234375 -1.484375 C 2.535156 -1.160156 2.878906 -0.90625 3.265625 -0.71875 C 3.660156 -0.53125 4.070312 -0.4375 4.5 -0.4375 C 5.050781 -0.4375 5.515625 -0.535156 5.890625 -0.734375 C 6.265625 -0.929688 6.640625 -1.222656 7.015625 -1.609375 L 7.015625 -0.84375 C 6.585938 -0.488281 6.171875 -0.226562 5.765625 -0.0625 C 5.359375 0.09375 4.9375 0.171875 4.5 0.171875 C 3.945312 0.171875 3.429688 0.0664062 2.953125 -0.140625 C 2.472656 -0.359375 2.054688 -0.65625 1.703125 -1.03125 C 1.347656 -1.40625 1.070312 -1.847656 0.875 -2.359375 C 0.675781 -2.867188 0.578125 -3.425781 0.578125 -4.03125 C 0.578125 -4.613281 0.675781 -5.160156 0.875 -5.671875 C 1.070312 -6.191406 1.347656 -6.640625 1.703125 -7.015625 C 2.054688 -7.390625 2.46875 -7.6875 2.9375 -7.90625 C 3.414062 -8.125 3.9375 -8.234375 4.5 -8.234375 C 5.070312 -8.234375 5.597656 -8.117188 6.078125 -7.890625 C 6.554688 -7.671875 6.96875 -7.375 7.3125 -7 C 7.664062 -6.625 7.941406 -6.1875 8.140625 -5.6875 C 8.335938 -5.1875 8.4375 -4.65625 8.4375 -4.09375 Z M 8.4375 0 "/></g></g></g><g fill="#d9d9d9" fill-opacity="1"><g transform="translate(234.682858, 106.639587)"><g><path d="M 7.484375 0 L 6.828125 0 L 6.828125 -4.875 C 6.828125 -5.25 6.765625 -5.601562 6.640625 -5.9375 C 6.515625 -6.269531 6.335938 -6.554688 6.109375 -6.796875 C 5.878906 -7.046875 5.601562 -7.242188 5.28125 -7.390625 C 4.96875 -7.535156 4.625 -7.609375 4.25 -7.609375 C 3.863281 -7.609375 3.507812 -7.535156 3.1875 -7.390625 C 2.875 -7.253906 2.601562 -7.0625 2.375 -6.8125 C 2.15625 -6.5625 1.984375 -6.269531 1.859375 -5.9375 C 1.734375 -5.601562 1.671875 -5.25 1.671875 -4.875 L 1.671875 0 L 1.015625 0 L 1.015625 -4.984375 C 1.015625 -5.429688 1.09375 -5.847656 1.25 -6.234375 C 1.414062 -6.628906 1.640625 -6.972656 1.921875 -7.265625 C 2.203125 -7.566406 2.539062 -7.800781 2.9375 -7.96875 C 3.332031 -8.144531 3.769531 -8.234375 4.25 -8.234375 C 4.726562 -8.234375 5.164062 -8.144531 5.5625 -7.96875 C 5.957031 -7.800781 6.296875 -7.566406 6.578125 -7.265625 C 6.859375 -6.960938 7.078125 -6.613281 7.234375 -6.21875 C 7.398438 -5.832031 7.484375 -5.421875 7.484375 -4.984375 Z M 7.484375 0 "/></g></g></g><g fill="#d9d9d9" fill-opacity="1"><g transform="translate(243.773929, 106.639587)"><g><path d="M 8.4375 0 L 7.78125 0 L 7.78125 -4.078125 C 7.78125 -4.535156 7.695312 -4.972656 7.53125 -5.390625 C 7.375 -5.816406 7.148438 -6.191406 6.859375 -6.515625 C 6.566406 -6.847656 6.21875 -7.113281 5.8125 -7.3125 C 5.414062 -7.507812 4.976562 -7.609375 4.5 -7.609375 C 4.0625 -7.609375 3.644531 -7.507812 3.25 -7.3125 C 2.863281 -7.125 2.519531 -6.867188 2.21875 -6.546875 C 1.925781 -6.222656 1.691406 -5.84375 1.515625 -5.40625 C 1.347656 -4.976562 1.265625 -4.519531 1.265625 -4.03125 C 1.265625 -3.53125 1.347656 -3.0625 1.515625 -2.625 C 1.691406 -2.195312 1.929688 -1.816406 2.234375 -1.484375 C 2.535156 -1.160156 2.878906 -0.90625 3.265625 -0.71875 C 3.660156 -0.53125 4.070312 -0.4375 4.5 -0.4375 C 5.050781 -0.4375 5.515625 -0.535156 5.890625 -0.734375 C 6.265625 -0.929688 6.640625 -1.222656 7.015625 -1.609375 L 7.015625 -0.84375 C 6.585938 -0.488281 6.171875 -0.226562 5.765625 -0.0625 C 5.359375 0.09375 4.9375 0.171875 4.5 0.171875 C 3.945312 0.171875 3.429688 0.0664062 2.953125 -0.140625 C 2.472656 -0.359375 2.054688 -0.65625 1.703125 -1.03125 C 1.347656 -1.40625 1.070312 -1.847656 0.875 -2.359375 C 0.675781 -2.867188 0.578125 -3.425781 0.578125 -4.03125 C 0.578125 -4.613281 0.675781 -5.160156 0.875 -5.671875 C 1.070312 -6.191406 1.347656 -6.640625 1.703125 -7.015625 C 2.054688 -7.390625 2.46875 -7.6875 2.9375 -7.90625 C 3.414062 -8.125 3.9375 -8.234375 4.5 -8.234375 C 5.070312 -8.234375 5.597656 -8.117188 6.078125 -7.890625 C 6.554688 -7.671875 6.96875 -7.375 7.3125 -7 C 7.664062 -6.625 7.941406 -6.1875 8.140625 -5.6875 C 8.335938 -5.1875 8.4375 -4.65625 8.4375 -4.09375 Z M 8.4375 0 "/></g></g></g><g fill="#d9d9d9" fill-opacity="1"><g transform="translate(253.816565, 106.639587)"><g><path d="M 8.4375 -0.03125 C 8.4375 0.539062 8.335938 1.066406 8.140625 1.546875 C 7.953125 2.035156 7.679688 2.445312 7.328125 2.78125 C 6.972656 3.125 6.546875 3.390625 6.046875 3.578125 C 5.546875 3.773438 4.992188 3.875 4.390625 3.875 C 3.578125 3.875 2.800781 3.738281 2.0625 3.46875 L 2.265625 2.859375 C 2.566406 2.984375 2.894531 3.082031 3.25 3.15625 C 3.613281 3.226562 3.960938 3.265625 4.296875 3.265625 C 5.535156 3.265625 6.425781 2.941406 6.96875 2.296875 C 7.507812 1.660156 7.78125 0.742188 7.78125 -0.453125 L 7.78125 -4.078125 C 7.78125 -4.535156 7.703125 -4.972656 7.546875 -5.390625 C 7.390625 -5.816406 7.164062 -6.191406 6.875 -6.515625 C 6.582031 -6.847656 6.234375 -7.113281 5.828125 -7.3125 C 5.429688 -7.507812 4.988281 -7.609375 4.5 -7.609375 C 4.070312 -7.609375 3.660156 -7.507812 3.265625 -7.3125 C 2.867188 -7.125 2.519531 -6.867188 2.21875 -6.546875 C 1.925781 -6.222656 1.691406 -5.84375 1.515625 -5.40625 C 1.347656 -4.976562 1.265625 -4.519531 1.265625 -4.03125 C 1.265625 -3.519531 1.351562 -3.046875 1.53125 -2.609375 C 1.707031 -2.171875 1.945312 -1.789062 2.25 -1.46875 C 2.550781 -1.144531 2.894531 -0.890625 3.28125 -0.703125 C 3.675781 -0.523438 4.082031 -0.4375 4.5 -0.4375 C 5.050781 -0.4375 5.515625 -0.535156 5.890625 -0.734375 C 6.265625 -0.929688 6.640625 -1.222656 7.015625 -1.609375 L 7.015625 -0.84375 C 6.585938 -0.488281 6.171875 -0.226562 5.765625 -0.0625 C 5.359375 0.09375 4.9375 0.171875 4.5 0.171875 C 3.957031 0.171875 3.445312 0.0664062 2.96875 -0.140625 C 2.488281 -0.347656 2.070312 -0.640625 1.71875 -1.015625 C 1.363281 -1.390625 1.082031 -1.832031 0.875 -2.34375 C 0.675781 -2.851562 0.578125 -3.414062 0.578125 -4.03125 C 0.578125 -4.613281 0.675781 -5.160156 0.875 -5.671875 C 1.070312 -6.191406 1.347656 -6.640625 1.703125 -7.015625 C 2.054688 -7.390625 2.46875 -7.6875 2.9375 -7.90625 C 3.414062 -8.125 3.9375 -8.234375 4.5 -8.234375 C 5.070312 -8.234375 5.597656 -8.117188 6.078125 -7.890625 C 6.554688 -7.671875 6.96875 -7.375 7.3125 -7 C 7.664062 -6.625 7.941406 -6.1875 8.140625 -5.6875 C 8.335938 -5.1875 8.4375 -4.65625 8.4375 -4.09375 Z M 8.4375 -0.03125 "/></g></g></g><g fill="#d9d9d9" fill-opacity="1"><g transform="translate(263.859202, 106.639587)"><g><path d="M 2.65625 -2.34375 L 2.25 -2.890625 L 7.421875 -6.390625 C 7.128906 -6.765625 6.757812 -7.0625 6.3125 -7.28125 C 5.863281 -7.5 5.367188 -7.609375 4.828125 -7.609375 C 4.328125 -7.609375 3.863281 -7.515625 3.4375 -7.328125 C 3.019531 -7.148438 2.65625 -6.894531 2.34375 -6.5625 C 2.03125 -6.226562 1.78125 -5.84375 1.59375 -5.40625 C 1.414062 -4.96875 1.328125 -4.492188 1.328125 -3.984375 C 1.328125 -3.492188 1.414062 -3.03125 1.59375 -2.59375 C 1.78125 -2.164062 2.03125 -1.789062 2.34375 -1.46875 C 2.664062 -1.15625 3.035156 -0.90625 3.453125 -0.71875 C 3.878906 -0.53125 4.335938 -0.4375 4.828125 -0.4375 C 5.304688 -0.4375 5.753906 -0.523438 6.171875 -0.703125 C 6.585938 -0.890625 6.957031 -1.132812 7.28125 -1.4375 C 7.601562 -1.75 7.859375 -2.109375 8.046875 -2.515625 C 8.234375 -2.929688 8.335938 -3.378906 8.359375 -3.859375 L 9.046875 -3.859375 C 9.023438 -3.273438 8.898438 -2.738281 8.671875 -2.25 C 8.441406 -1.757812 8.140625 -1.332031 7.765625 -0.96875 C 7.390625 -0.613281 6.960938 -0.332031 6.484375 -0.125 C 6.003906 0.0703125 5.5 0.171875 4.96875 0.171875 C 4.332031 0.171875 3.75 0.0664062 3.21875 -0.140625 C 2.695312 -0.359375 2.242188 -0.65625 1.859375 -1.03125 C 1.472656 -1.40625 1.171875 -1.847656 0.953125 -2.359375 C 0.742188 -2.867188 0.640625 -3.421875 0.640625 -4.015625 C 0.640625 -4.585938 0.742188 -5.128906 0.953125 -5.640625 C 1.171875 -6.160156 1.460938 -6.609375 1.828125 -6.984375 C 2.203125 -7.367188 2.644531 -7.671875 3.15625 -7.890625 C 3.664062 -8.117188 4.222656 -8.234375 4.828125 -8.234375 C 5.609375 -8.234375 6.3125 -8.050781 6.9375 -7.6875 C 7.5625 -7.320312 8.054688 -6.84375 8.421875 -6.25 Z M 2.65625 -2.34375 "/></g></g></g><g fill="#d9d9d9" fill-opacity="1"><g transform="translate(273.901838, 106.639587)"><g><path d="M 6.15625 -6.640625 C 6.320312 -7.148438 6.597656 -7.539062 6.984375 -7.8125 C 7.378906 -8.09375 7.898438 -8.234375 8.546875 -8.234375 C 8.953125 -8.234375 9.320312 -8.160156 9.65625 -8.015625 C 10 -7.867188 10.289062 -7.671875 10.53125 -7.421875 C 10.769531 -7.179688 10.953125 -6.882812 11.078125 -6.53125 C 11.210938 -6.1875 11.28125 -5.8125 11.28125 -5.40625 L 11.28125 0 L 10.640625 0 L 10.640625 -5.390625 C 10.640625 -5.710938 10.582031 -6.007812 10.46875 -6.28125 C 10.363281 -6.5625 10.21875 -6.800781 10.03125 -7 C 9.851562 -7.195312 9.632812 -7.347656 9.375 -7.453125 C 9.125 -7.554688 8.847656 -7.609375 8.546875 -7.609375 C 8.242188 -7.609375 7.960938 -7.554688 7.703125 -7.453125 C 7.453125 -7.347656 7.234375 -7.195312 7.046875 -7 C 6.859375 -6.800781 6.710938 -6.5625 6.609375 -6.28125 C 6.503906 -6.007812 6.453125 -5.710938 6.453125 -5.390625 L 6.453125 0 L 5.8125 0 L 5.8125 -5.390625 C 5.8125 -5.710938 5.753906 -6.007812 5.640625 -6.28125 C 5.535156 -6.5625 5.390625 -6.800781 5.203125 -7 C 5.023438 -7.195312 4.804688 -7.347656 4.546875 -7.453125 C 4.296875 -7.554688 4.019531 -7.609375 3.71875 -7.609375 C 3.425781 -7.609375 3.148438 -7.554688 2.890625 -7.453125 C 2.640625 -7.347656 2.421875 -7.195312 2.234375 -7 C 2.046875 -6.800781 1.894531 -6.5625 1.78125 -6.28125 C 1.675781 -6.007812 1.625 -5.710938 1.625 -5.390625 L 1.625 0 L 0.984375 0 L 0.984375 -5.40625 C 0.984375 -5.8125 1.046875 -6.1875 1.171875 -6.53125 C 1.304688 -6.882812 1.492188 -7.179688 1.734375 -7.421875 C 1.984375 -7.671875 2.273438 -7.867188 2.609375 -8.015625 C 2.941406 -8.160156 3.3125 -8.234375 3.71875 -8.234375 C 4.363281 -8.234375 4.878906 -8.09375 5.265625 -7.8125 C 5.660156 -7.539062 5.945312 -7.148438 6.125 -6.640625 Z M 6.15625 -6.640625 "/></g></g></g><g fill="#d9d9d9" fill-opacity="1"><g transform="translate(286.765168, 106.639587)"><g><path d="M 2.65625 -2.34375 L 2.25 -2.890625 L 7.421875 -6.390625 C 7.128906 -6.765625 6.757812 -7.0625 6.3125 -7.28125 C 5.863281 -7.5 5.367188 -7.609375 4.828125 -7.609375 C 4.328125 -7.609375 3.863281 -7.515625 3.4375 -7.328125 C 3.019531 -7.148438 2.65625 -6.894531 2.34375 -6.5625 C 2.03125 -6.226562 1.78125 -5.84375 1.59375 -5.40625 C 1.414062 -4.96875 1.328125 -4.492188 1.328125 -3.984375 C 1.328125 -3.492188 1.414062 -3.03125 1.59375 -2.59375 C 1.78125 -2.164062 2.03125 -1.789062 2.34375 -1.46875 C 2.664062 -1.15625 3.035156 -0.90625 3.453125 -0.71875 C 3.878906 -0.53125 4.335938 -0.4375 4.828125 -0.4375 C 5.304688 -0.4375 5.753906 -0.523438 6.171875 -0.703125 C 6.585938 -0.890625 6.957031 -1.132812 7.28125 -1.4375 C 7.601562 -1.75 7.859375 -2.109375 8.046875 -2.515625 C 8.234375 -2.929688 8.335938 -3.378906 8.359375 -3.859375 L 9.046875 -3.859375 C 9.023438 -3.273438 8.898438 -2.738281 8.671875 -2.25 C 8.441406 -1.757812 8.140625 -1.332031 7.765625 -0.96875 C 7.390625 -0.613281 6.960938 -0.332031 6.484375 -0.125 C 6.003906 0.0703125 5.5 0.171875 4.96875 0.171875 C 4.332031 0.171875 3.75 0.0664062 3.21875 -0.140625 C 2.695312 -0.359375 2.242188 -0.65625 1.859375 -1.03125 C 1.472656 -1.40625 1.171875 -1.847656 0.953125 -2.359375 C 0.742188 -2.867188 0.640625 -3.421875 0.640625 -4.015625 C 0.640625 -4.585938 0.742188 -5.128906 0.953125 -5.640625 C 1.171875 -6.160156 1.460938 -6.609375 1.828125 -6.984375 C 2.203125 -7.367188 2.644531 -7.671875 3.15625 -7.890625 C 3.664062 -8.117188 4.222656 -8.234375 4.828125 -8.234375 C 5.609375 -8.234375 6.3125 -8.050781 6.9375 -7.6875 C 7.5625 -7.320312 8.054688 -6.84375 8.421875 -6.25 Z M 2.65625 -2.34375 "/></g></g></g><g fill="#d9d9d9" fill-opacity="1"><g transform="translate(296.807805, 106.639587)"><g><path d="M 7.484375 0 L 6.828125 0 L 6.828125 -4.875 C 6.828125 -5.25 6.765625 -5.601562 6.640625 -5.9375 C 6.515625 -6.269531 6.335938 -6.554688 6.109375 -6.796875 C 5.878906 -7.046875 5.601562 -7.242188 5.28125 -7.390625 C 4.96875 -7.535156 4.625 -7.609375 4.25 -7.609375 C 3.863281 -7.609375 3.507812 -7.535156 3.1875 -7.390625 C 2.875 -7.253906 2.601562 -7.0625 2.375 -6.8125 C 2.15625 -6.5625 1.984375 -6.269531 1.859375 -5.9375 C 1.734375 -5.601562 1.671875 -5.25 1.671875 -4.875 L 1.671875 0 L 1.015625 0 L 1.015625 -4.984375 C 1.015625 -5.429688 1.09375 -5.847656 1.25 -6.234375 C 1.414062 -6.628906 1.640625 -6.972656 1.921875 -7.265625 C 2.203125 -7.566406 2.539062 -7.800781 2.9375 -7.96875 C 3.332031 -8.144531 3.769531 -8.234375 4.25 -8.234375 C 4.726562 -8.234375 5.164062 -8.144531 5.5625 -7.96875 C 5.957031 -7.800781 6.296875 -7.566406 6.578125 -7.265625 C 6.859375 -6.960938 7.078125 -6.613281 7.234375 -6.21875 C 7.398438 -5.832031 7.484375 -5.421875 7.484375 -4.984375 Z M 7.484375 0 "/></g></g></g><g fill="#d9d9d9" fill-opacity="1"><g transform="translate(305.898876, 106.639587)"><g><path d="M 1.015625 -10.265625 L 1.671875 -10.265625 L 1.671875 -8.0625 L 4.515625 -8.0625 L 4.515625 -7.453125 L 1.671875 -7.453125 L 1.671875 -2.1875 C 1.671875 -1.71875 1.8125 -1.335938 2.09375 -1.046875 C 2.375 -0.753906 2.734375 -0.609375 3.171875 -0.609375 L 4.515625 -0.609375 L 4.515625 0 L 3.3125 0 C 2.5625 0 1.988281 -0.203125 1.59375 -0.609375 C 1.207031 -1.023438 1.015625 -1.578125 1.015625 -2.265625 Z M 1.015625 -10.265625 "/></g></g></g><g fill="#d9d9d9" fill-opacity="1"><g transform="translate(311.217701, 106.639587)"><g/></g></g><g fill="#d9d9d9" fill-opacity="1"><g transform="translate(316.536525, 106.639587)"><g><path d="M 8.046875 -11.90625 L 8.046875 -11.25 L 4.046875 -11.25 C 3.234375 -11.25 2.601562 -11.09375 2.15625 -10.78125 C 1.707031 -10.46875 1.484375 -9.925781 1.484375 -9.15625 C 1.484375 -8.832031 1.535156 -8.546875 1.640625 -8.296875 C 1.753906 -8.054688 1.90625 -7.84375 2.09375 -7.65625 C 2.289062 -7.476562 2.523438 -7.320312 2.796875 -7.1875 C 3.066406 -7.050781 3.351562 -6.929688 3.65625 -6.828125 C 4.007812 -6.703125 4.378906 -6.585938 4.765625 -6.484375 C 5.160156 -6.390625 5.546875 -6.28125 5.921875 -6.15625 C 6.296875 -6.03125 6.648438 -5.882812 6.984375 -5.71875 C 7.328125 -5.550781 7.625 -5.347656 7.875 -5.109375 C 8.132812 -4.867188 8.335938 -4.578125 8.484375 -4.234375 C 8.640625 -3.890625 8.71875 -3.484375 8.71875 -3.015625 C 8.71875 -2.503906 8.628906 -2.054688 8.453125 -1.671875 C 8.273438 -1.296875 8.023438 -0.984375 7.703125 -0.734375 C 7.378906 -0.492188 6.992188 -0.3125 6.546875 -0.1875 C 6.097656 -0.0625 5.601562 0 5.0625 0 L 0.734375 0 L 0.734375 -0.640625 L 4.984375 -0.640625 C 5.898438 -0.640625 6.625 -0.828125 7.15625 -1.203125 C 7.695312 -1.578125 7.96875 -2.144531 7.96875 -2.90625 C 7.96875 -3.445312 7.84375 -3.890625 7.59375 -4.234375 C 7.34375 -4.578125 7.023438 -4.851562 6.640625 -5.0625 C 6.253906 -5.269531 5.828125 -5.4375 5.359375 -5.5625 C 4.890625 -5.695312 4.429688 -5.832031 3.984375 -5.96875 C 3.546875 -6.09375 3.128906 -6.226562 2.734375 -6.375 C 2.347656 -6.53125 2.003906 -6.734375 1.703125 -6.984375 C 1.410156 -7.234375 1.175781 -7.535156 1 -7.890625 C 0.820312 -8.253906 0.734375 -8.703125 0.734375 -9.234375 C 0.734375 -10.078125 1.007812 -10.734375 1.5625 -11.203125 C 2.125 -11.671875 2.867188 -11.90625 3.796875 -11.90625 Z M 8.046875 -11.90625 "/></g></g></g><g fill="#d9d9d9" fill-opacity="1"><g transform="translate(326.579161, 106.639587)"><g><path d="M 1.015625 -8.0625 L 1.671875 -8.0625 L 1.671875 -3.171875 C 1.671875 -2.785156 1.734375 -2.425781 1.859375 -2.09375 C 1.992188 -1.757812 2.171875 -1.46875 2.390625 -1.21875 C 2.617188 -0.976562 2.890625 -0.785156 3.203125 -0.640625 C 3.523438 -0.503906 3.875 -0.4375 4.25 -0.4375 C 4.613281 -0.4375 4.953125 -0.503906 5.265625 -0.640625 C 5.585938 -0.773438 5.863281 -0.96875 6.09375 -1.21875 C 6.320312 -1.46875 6.5 -1.753906 6.625 -2.078125 C 6.757812 -2.410156 6.828125 -2.773438 6.828125 -3.171875 L 6.828125 -8.0625 L 7.484375 -8.0625 L 7.484375 -3.078125 C 7.484375 -2.679688 7.414062 -2.296875 7.28125 -1.921875 C 7.15625 -1.554688 6.96875 -1.226562 6.71875 -0.9375 C 6.46875 -0.644531 6.164062 -0.40625 5.8125 -0.21875 C 5.457031 -0.03125 5.054688 0.0859375 4.609375 0.140625 L 4.609375 3.671875 L 3.890625 3.671875 L 3.890625 0.140625 C 3.441406 0.0859375 3.035156 -0.03125 2.671875 -0.21875 C 2.316406 -0.40625 2.015625 -0.644531 1.765625 -0.9375 C 1.523438 -1.226562 1.335938 -1.554688 1.203125 -1.921875 C 1.078125 -2.296875 1.015625 -2.679688 1.015625 -3.078125 Z M 1.015625 -8.0625 "/></g></g></g><g fill="#d9d9d9" fill-opacity="1"><g transform="translate(335.670221, 106.639587)"><g><path d="M 6.3125 -8.0625 L 6.3125 -7.453125 L 2.703125 -7.453125 C 2.546875 -7.453125 2.382812 -7.421875 2.21875 -7.359375 C 2.0625 -7.304688 1.914062 -7.222656 1.78125 -7.109375 C 1.65625 -7.003906 1.550781 -6.863281 1.46875 -6.6875 C 1.382812 -6.519531 1.34375 -6.332031 1.34375 -6.125 C 1.34375 -5.851562 1.40625 -5.628906 1.53125 -5.453125 C 1.664062 -5.273438 1.835938 -5.125 2.046875 -5 C 2.265625 -4.882812 2.515625 -4.785156 2.796875 -4.703125 C 3.085938 -4.628906 3.382812 -4.554688 3.6875 -4.484375 C 4.070312 -4.398438 4.457031 -4.304688 4.84375 -4.203125 C 5.226562 -4.109375 5.570312 -3.972656 5.875 -3.796875 C 6.1875 -3.628906 6.4375 -3.410156 6.625 -3.140625 C 6.820312 -2.867188 6.921875 -2.515625 6.921875 -2.078125 C 6.921875 -1.347656 6.671875 -0.816406 6.171875 -0.484375 C 5.671875 -0.160156 5.007812 0 4.1875 0 L 0.640625 0 L 0.640625 -0.609375 L 4.3125 -0.609375 C 4.96875 -0.609375 5.445312 -0.726562 5.75 -0.96875 C 6.050781 -1.21875 6.203125 -1.550781 6.203125 -1.96875 C 6.203125 -2.34375 6.101562 -2.644531 5.90625 -2.875 C 5.707031 -3.101562 5.445312 -3.285156 5.125 -3.421875 C 4.8125 -3.566406 4.457031 -3.679688 4.0625 -3.765625 C 3.664062 -3.847656 3.273438 -3.941406 2.890625 -4.046875 C 2.585938 -4.128906 2.296875 -4.21875 2.015625 -4.3125 C 1.742188 -4.40625 1.503906 -4.53125 1.296875 -4.6875 C 1.097656 -4.851562 0.9375 -5.046875 0.8125 -5.265625 C 0.6875 -5.492188 0.625 -5.773438 0.625 -6.109375 C 0.625 -6.390625 0.675781 -6.648438 0.78125 -6.890625 C 0.894531 -7.140625 1.039062 -7.347656 1.21875 -7.515625 C 1.40625 -7.679688 1.617188 -7.8125 1.859375 -7.90625 C 2.109375 -8.007812 2.367188 -8.0625 2.640625 -8.0625 Z M 6.3125 -8.0625 "/></g></g></g><g fill="#d9d9d9" fill-opacity="1"><g transform="translate(343.80974, 106.639587)"><g><path d="M 1.015625 -10.265625 L 1.671875 -10.265625 L 1.671875 -8.0625 L 4.515625 -8.0625 L 4.515625 -7.453125 L 1.671875 -7.453125 L 1.671875 -2.1875 C 1.671875 -1.71875 1.8125 -1.335938 2.09375 -1.046875 C 2.375 -0.753906 2.734375 -0.609375 3.171875 -0.609375 L 4.515625 -0.609375 L 4.515625 0 L 3.3125 0 C 2.5625 0 1.988281 -0.203125 1.59375 -0.609375 C 1.207031 -1.023438 1.015625 -1.578125 1.015625 -2.265625 Z M 1.015625 -10.265625 "/></g></g></g><g fill="#d9d9d9" fill-opacity="1"><g transform="translate(349.128564, 106.639587)"><g><path d="M 2.65625 -2.34375 L 2.25 -2.890625 L 7.421875 -6.390625 C 7.128906 -6.765625 6.757812 -7.0625 6.3125 -7.28125 C 5.863281 -7.5 5.367188 -7.609375 4.828125 -7.609375 C 4.328125 -7.609375 3.863281 -7.515625 3.4375 -7.328125 C 3.019531 -7.148438 2.65625 -6.894531 2.34375 -6.5625 C 2.03125 -6.226562 1.78125 -5.84375 1.59375 -5.40625 C 1.414062 -4.96875 1.328125 -4.492188 1.328125 -3.984375 C 1.328125 -3.492188 1.414062 -3.03125 1.59375 -2.59375 C 1.78125 -2.164062 2.03125 -1.789062 2.34375 -1.46875 C 2.664062 -1.15625 3.035156 -0.90625 3.453125 -0.71875 C 3.878906 -0.53125 4.335938 -0.4375 4.828125 -0.4375 C 5.304688 -0.4375 5.753906 -0.523438 6.171875 -0.703125 C 6.585938 -0.890625 6.957031 -1.132812 7.28125 -1.4375 C 7.601562 -1.75 7.859375 -2.109375 8.046875 -2.515625 C 8.234375 -2.929688 8.335938 -3.378906 8.359375 -3.859375 L 9.046875 -3.859375 C 9.023438 -3.273438 8.898438 -2.738281 8.671875 -2.25 C 8.441406 -1.757812 8.140625 -1.332031 7.765625 -0.96875 C 7.390625 -0.613281 6.960938 -0.332031 6.484375 -0.125 C 6.003906 0.0703125 5.5 0.171875 4.96875 0.171875 C 4.332031 0.171875 3.75 0.0664062 3.21875 -0.140625 C 2.695312 -0.359375 2.242188 -0.65625 1.859375 -1.03125 C 1.472656 -1.40625 1.171875 -1.847656 0.953125 -2.359375 C 0.742188 -2.867188 0.640625 -3.421875 0.640625 -4.015625 C 0.640625 -4.585938 0.742188 -5.128906 0.953125 -5.640625 C 1.171875 -6.160156 1.460938 -6.609375 1.828125 -6.984375 C 2.203125 -7.367188 2.644531 -7.671875 3.15625 -7.890625 C 3.664062 -8.117188 4.222656 -8.234375 4.828125 -8.234375 C 5.609375 -8.234375 6.3125 -8.050781 6.9375 -7.6875 C 7.5625 -7.320312 8.054688 -6.84375 8.421875 -6.25 Z M 2.65625 -2.34375 "/></g></g></g><g fill="#d9d9d9" fill-opacity="1"><g transform="translate(359.171189, 106.639587)"><g><path d="M 6.15625 -6.640625 C 6.320312 -7.148438 6.597656 -7.539062 6.984375 -7.8125 C 7.378906 -8.09375 7.898438 -8.234375 8.546875 -8.234375 C 8.953125 -8.234375 9.320312 -8.160156 9.65625 -8.015625 C 10 -7.867188 10.289062 -7.671875 10.53125 -7.421875 C 10.769531 -7.179688 10.953125 -6.882812 11.078125 -6.53125 C 11.210938 -6.1875 11.28125 -5.8125 11.28125 -5.40625 L 11.28125 0 L 10.640625 0 L 10.640625 -5.390625 C 10.640625 -5.710938 10.582031 -6.007812 10.46875 -6.28125 C 10.363281 -6.5625 10.21875 -6.800781 10.03125 -7 C 9.851562 -7.195312 9.632812 -7.347656 9.375 -7.453125 C 9.125 -7.554688 8.847656 -7.609375 8.546875 -7.609375 C 8.242188 -7.609375 7.960938 -7.554688 7.703125 -7.453125 C 7.453125 -7.347656 7.234375 -7.195312 7.046875 -7 C 6.859375 -6.800781 6.710938 -6.5625 6.609375 -6.28125 C 6.503906 -6.007812 6.453125 -5.710938 6.453125 -5.390625 L 6.453125 0 L 5.8125 0 L 5.8125 -5.390625 C 5.8125 -5.710938 5.753906 -6.007812 5.640625 -6.28125 C 5.535156 -6.5625 5.390625 -6.800781 5.203125 -7 C 5.023438 -7.195312 4.804688 -7.347656 4.546875 -7.453125 C 4.296875 -7.554688 4.019531 -7.609375 3.71875 -7.609375 C 3.425781 -7.609375 3.148438 -7.554688 2.890625 -7.453125 C 2.640625 -7.347656 2.421875 -7.195312 2.234375 -7 C 2.046875 -6.800781 1.894531 -6.5625 1.78125 -6.28125 C 1.675781 -6.007812 1.625 -5.710938 1.625 -5.390625 L 1.625 0 L 0.984375 0 L 0.984375 -5.40625 C 0.984375 -5.8125 1.046875 -6.1875 1.171875 -6.53125 C 1.304688 -6.882812 1.492188 -7.179688 1.734375 -7.421875 C 1.984375 -7.671875 2.273438 -7.867188 2.609375 -8.015625 C 2.941406 -8.160156 3.3125 -8.234375 3.71875 -8.234375 C 4.363281 -8.234375 4.878906 -8.09375 5.265625 -7.8125 C 5.660156 -7.539062 5.945312 -7.148438 6.125 -6.640625 Z M 6.15625 -6.640625 "/></g></g></g></svg>