<svg xmlns="http://www.w3.org/2000/svg" xmlns:xlink="http://www.w3.org/1999/xlink" width="500" zoomAndPan="magnify" viewBox="0 0 375 149.999998" height="200" preserveAspectRatio="xMidYMid meet" version="1.0"><defs><g/><clipPath id="18ae863fc8"><path d="M 25 3.355469 L 101 3.355469 L 101 31 L 25 31 Z M 25 3.355469 " clip-rule="nonzero"/></clipPath><clipPath id="66ba76a9de"><path d="M 3.355469 34 L 122.605469 34 L 122.605469 110 L 3.355469 110 Z M 3.355469 34 " clip-rule="nonzero"/></clipPath><clipPath id="3b67ca5e8e"><path d="M 8 41 L 121 41 L 121 149.605469 L 8 149.605469 Z M 8 41 " clip-rule="nonzero"/></clipPath></defs><g clip-path="url(#18ae863fc8)"><path fill="#5e17eb" d="M 100.9375 3.472656 L 25.027344 30.503906 L 100.9375 20.277344 Z M 100.9375 3.472656 " fill-opacity="1" fill-rule="evenodd"/></g><path fill="#5e17eb" d="M 111.007812 34.589844 L 111.007812 23.667969 L 41.980469 32.867188 Z M 111.007812 34.589844 " fill-opacity="1" fill-rule="evenodd"/><g clip-path="url(#66ba76a9de)"><path fill="#5e17eb" d="M 120.761719 38.234375 L 120.25 38.300781 C 99.152344 39.769531 64.480469 38.617188 19.609375 34.59375 L 19.609375 77.152344 C 14.507812 82.902344 6.671875 94.085938 3.355469 109.292969 C 35.800781 62.390625 69.898438 52.742188 120.695312 38.617188 L 120.761719 38.617188 L 122.609375 38.109375 C 121.972656 38.171875 121.398438 38.234375 120.761719 38.234375 Z M 120.761719 38.234375 " fill-opacity="1" fill-rule="evenodd"/></g><g clip-path="url(#3b67ca5e8e)"><path fill="#0097b2" d="M 8.710938 149.488281 C 27.832031 112.617188 56.195312 84.882812 98.769531 78.175781 C 66.519531 85.074219 46.636719 111.148438 33.761719 139.839844 C 47.144531 122.332031 63.84375 108.910156 84.558594 101.308594 C 67.09375 111.148438 54.347656 125.207031 47.65625 144.121094 C 50.585938 140.09375 53.644531 135.75 57.023438 132.109375 L 120.761719 136.007812 L 120.761719 41.300781 C 65.753906 59.515625 27.449219 94.722656 8.710938 149.488281 Z M 8.710938 149.488281 " fill-opacity="1" fill-rule="evenodd"/></g><g fill="#5e17eb" fill-opacity="1"><g transform="translate(137.376982, 79.290939)"><g><path d="M 22.703125 -5.265625 L 23.078125 -4.75 L 22.65625 0 L 3.671875 0 L 4 -9.03125 L 3.671875 -30.28125 L 22.84375 -30.28125 L 23.21875 -29.765625 L 22.75 -25.015625 L 15.515625 -25.25 L 10.0625 -25.203125 L 9.921875 -17.90625 L 15.140625 -17.8125 L 20.078125 -17.953125 L 20.453125 -17.484375 L 20.03125 -12.734375 L 14.671875 -12.875 L 9.828125 -12.828125 L 9.78125 -9.59375 L 9.921875 -5.03125 L 15.234375 -4.984375 Z M 22.703125 -5.265625 "/></g></g></g><g fill="#5e17eb" fill-opacity="1"><g transform="translate(161.301976, 79.290939)"><g><path d="M 27.453125 0 L 20.96875 0 L 20.21875 -3.953125 L 19.421875 -6.765625 L 13.5 -6.90625 L 8.28125 -6.765625 L 7.46875 -4.28125 L 6.671875 0 L 0.375 0 L 10.625 -30.28125 L 18.1875 -30.28125 Z M 18.046875 -11.703125 L 14.484375 -24.3125 L 14.0625 -24.3125 L 9.921875 -11.703125 L 13.96875 -11.609375 Z M 18.046875 -11.703125 "/></g></g></g><g fill="#5e17eb" fill-opacity="1"><g transform="translate(189.504324, 79.290939)"><g><path d="M 13.40625 -30.65625 C 15.96875 -30.65625 18.519531 -30.140625 21.0625 -29.109375 L 20.03125 -23.609375 L 19.09375 -23.21875 C 18.019531 -23.976562 16.910156 -24.578125 15.765625 -25.015625 C 14.628906 -25.453125 13.585938 -25.671875 12.640625 -25.671875 C 11.390625 -25.671875 10.390625 -25.332031 9.640625 -24.65625 C 8.890625 -23.988281 8.515625 -23.210938 8.515625 -22.328125 C 8.515625 -21.421875 8.925781 -20.65625 9.75 -20.03125 C 10.582031 -19.40625 11.894531 -18.664062 13.6875 -17.8125 C 15.40625 -17.03125 16.804688 -16.300781 17.890625 -15.625 C 18.972656 -14.957031 19.894531 -14.070312 20.65625 -12.96875 C 21.425781 -11.875 21.8125 -10.53125 21.8125 -8.9375 C 21.8125 -7.207031 21.34375 -5.628906 20.40625 -4.203125 C 19.46875 -2.773438 18.132812 -1.644531 16.40625 -0.8125 C 14.6875 0.0078125 12.695312 0.421875 10.4375 0.421875 C 7.457031 0.421875 4.460938 -0.21875 1.453125 -1.5 L 2.34375 -7.421875 L 3.0625 -7.796875 C 4.3125 -6.703125 5.679688 -5.863281 7.171875 -5.28125 C 8.660156 -4.707031 9.984375 -4.421875 11.140625 -4.421875 C 12.523438 -4.421875 13.597656 -4.753906 14.359375 -5.421875 C 15.128906 -6.097656 15.515625 -6.910156 15.515625 -7.859375 C 15.515625 -8.859375 15.097656 -9.671875 14.265625 -10.296875 C 13.429688 -10.921875 12.09375 -11.671875 10.25 -12.546875 C 8.550781 -13.304688 7.171875 -14.015625 6.109375 -14.671875 C 5.046875 -15.328125 4.132812 -16.203125 3.375 -17.296875 C 2.625 -18.398438 2.25 -19.734375 2.25 -21.296875 C 2.25 -23.054688 2.71875 -24.644531 3.65625 -26.0625 C 4.601562 -27.488281 5.921875 -28.609375 7.609375 -29.421875 C 9.304688 -30.242188 11.238281 -30.65625 13.40625 -30.65625 Z M 13.40625 -30.65625 "/></g></g></g><g fill="#5e17eb" fill-opacity="1"><g transform="translate(212.912275, 79.290939)"><g><path d="M 22.984375 -29.765625 L 22.609375 -25.015625 L 16.921875 -25.296875 L 15.046875 -25.296875 L 14.8125 -9.59375 L 15.09375 0 L 8.703125 0 L 9.03125 -9.03125 L 8.796875 -25.296875 L 6.90625 -25.296875 L 1.125 -25.015625 L 0.703125 -25.53125 L 1.125 -30.28125 L 22.609375 -30.28125 Z M 22.984375 -29.765625 "/></g></g></g><g fill="#5e17eb" fill-opacity="1"><g transform="translate(236.555252, 79.290939)"><g/></g></g><g fill="#5e17eb" fill-opacity="1"><g transform="translate(243.652843, 79.290939)"><g><path d="M 15.84375 -30.46875 C 20.226562 -30.46875 23.597656 -29.242188 25.953125 -26.796875 C 28.304688 -24.347656 29.484375 -20.835938 29.484375 -16.265625 C 29.484375 -10.910156 28.164062 -6.804688 25.53125 -3.953125 C 22.894531 -1.097656 19.132812 0.328125 14.25 0.328125 C 12.769531 0.328125 11.003906 0.296875 8.953125 0.234375 C 6.898438 0.171875 5.140625 0.09375 3.671875 0 L 4 -9.03125 L 3.671875 -30.28125 Z M 15.375 -4.609375 C 20.351562 -4.609375 22.84375 -8.007812 22.84375 -14.8125 C 22.84375 -18.507812 22.238281 -21.195312 21.03125 -22.875 C 19.832031 -24.550781 17.945312 -25.390625 15.375 -25.390625 C 13.707031 -25.390625 11.9375 -25.3125 10.0625 -25.15625 L 9.78125 -9.59375 L 9.921875 -4.9375 C 12.117188 -4.71875 13.9375 -4.609375 15.375 -4.609375 Z M 15.375 -4.609375 "/></g></g></g><g fill="#5e17eb" fill-opacity="1"><g transform="translate(274.440413, 79.290939)"><g><path d="M 22.703125 -5.265625 L 23.078125 -4.75 L 22.65625 0 L 3.671875 0 L 4 -9.03125 L 3.671875 -30.28125 L 22.84375 -30.28125 L 23.21875 -29.765625 L 22.75 -25.015625 L 15.515625 -25.25 L 10.0625 -25.203125 L 9.921875 -17.90625 L 15.140625 -17.8125 L 20.078125 -17.953125 L 20.453125 -17.484375 L 20.03125 -12.734375 L 14.671875 -12.875 L 9.828125 -12.828125 L 9.78125 -9.59375 L 9.921875 -5.03125 L 15.234375 -4.984375 Z M 22.703125 -5.265625 "/></g></g></g><g fill="#5e17eb" fill-opacity="1"><g transform="translate(298.365407, 79.290939)"><g><path d="M 20.265625 -4.75 L 19.84375 0 L 3.484375 0 L 3.8125 -9.03125 L 3.484375 -30.28125 L 9.96875 -30.28125 L 9.59375 -9.59375 L 9.734375 -5.265625 L 19.890625 -5.265625 Z M 20.265625 -4.75 "/></g></g></g><g fill="#5e17eb" fill-opacity="1"><g transform="translate(318.718105, 79.290939)"><g><path d="M 22.984375 -29.765625 L 22.609375 -25.015625 L 16.921875 -25.296875 L 15.046875 -25.296875 L 14.8125 -9.59375 L 15.09375 0 L 8.703125 0 L 9.03125 -9.03125 L 8.796875 -25.296875 L 6.90625 -25.296875 L 1.125 -25.015625 L 0.703125 -25.53125 L 1.125 -30.28125 L 22.609375 -30.28125 Z M 22.984375 -29.765625 "/></g></g></g><g fill="#5e17eb" fill-opacity="1"><g transform="translate(342.36107, 79.290939)"><g><path d="M 27.453125 0 L 20.96875 0 L 20.21875 -3.953125 L 19.421875 -6.765625 L 13.5 -6.90625 L 8.28125 -6.765625 L 7.46875 -4.28125 L 6.671875 0 L 0.375 0 L 10.625 -30.28125 L 18.1875 -30.28125 Z M 18.046875 -11.703125 L 14.484375 -24.3125 L 14.0625 -24.3125 L 9.921875 -11.703125 L 13.96875 -11.609375 Z M 18.046875 -11.703125 "/></g></g></g><g fill="#0097b2" fill-opacity="1"><g transform="translate(139.37087, 106.839591)"><g><path d="M 5.324219 -1.695312 L 2.878906 -1.695312 C 2.761719 -1.695312 2.65625 -1.726562 2.566406 -1.816406 C 2.476562 -1.90625 2.445312 -2.011719 2.445312 -2.128906 L 2.445312 -10.558594 C 2.445312 -10.679688 2.398438 -10.769531 2.308594 -10.859375 C 2.21875 -10.949219 2.128906 -10.996094 2.011719 -10.996094 L 1.183594 -10.996094 C 1.066406 -10.996094 0.960938 -10.949219 0.871094 -10.859375 C 0.78125 -10.769531 0.75 -10.679688 0.75 -10.558594 L 0.75 -0.433594 C 0.75 -0.316406 0.78125 -0.210938 0.871094 -0.121094 C 0.960938 -0.03125 1.066406 0 1.183594 0 L 5.324219 0 C 5.445312 0 5.535156 -0.03125 5.625 -0.121094 C 5.714844 -0.210938 5.761719 -0.316406 5.761719 -0.433594 L 5.761719 -1.261719 C 5.761719 -1.378906 5.714844 -1.46875 5.625 -1.558594 C 5.535156 -1.648438 5.445312 -1.695312 5.324219 -1.695312 Z M 5.324219 -1.695312 "/></g></g></g><g fill="#0097b2" fill-opacity="1"><g transform="translate(146.810864, 106.839591)"><g><path d="M 6.148438 -9.734375 L 6.148438 -10.558594 C 6.148438 -10.679688 6.105469 -10.769531 6.015625 -10.859375 C 5.925781 -10.949219 5.835938 -10.996094 5.714844 -10.996094 L 1.183594 -10.996094 C 1.066406 -10.996094 0.960938 -10.949219 0.871094 -10.859375 C 0.78125 -10.769531 0.75 -10.679688 0.75 -10.558594 L 0.75 -0.433594 C 0.75 -0.316406 0.78125 -0.210938 0.871094 -0.121094 C 0.960938 -0.03125 1.066406 0 1.183594 0 L 5.714844 0 C 5.835938 0 5.925781 -0.03125 6.015625 -0.121094 C 6.105469 -0.210938 6.148438 -0.316406 6.148438 -0.433594 L 6.148438 -1.261719 C 6.148438 -1.378906 6.105469 -1.46875 6.015625 -1.558594 C 5.925781 -1.648438 5.835938 -1.695312 5.714844 -1.695312 L 2.878906 -1.695312 C 2.761719 -1.695312 2.65625 -1.726562 2.566406 -1.816406 C 2.476562 -1.90625 2.445312 -2.011719 2.445312 -2.128906 L 2.445312 -5.398438 C 2.445312 -5.519531 2.476562 -5.609375 2.566406 -5.699219 C 2.65625 -5.789062 2.761719 -5.835938 2.878906 -5.835938 L 4.753906 -5.835938 C 4.875 -5.835938 4.980469 -5.878906 5.070312 -5.96875 C 5.160156 -6.058594 5.203125 -6.164062 5.203125 -6.285156 L 5.203125 -7.09375 C 5.203125 -7.214844 5.160156 -7.304688 5.070312 -7.394531 C 4.980469 -7.484375 4.875 -7.53125 4.753906 -7.53125 L 2.878906 -7.53125 C 2.761719 -7.53125 2.65625 -7.558594 2.566406 -7.648438 C 2.476562 -7.738281 2.445312 -7.84375 2.445312 -7.964844 L 2.445312 -8.863281 C 2.445312 -8.984375 2.476562 -9.074219 2.566406 -9.164062 C 2.65625 -9.253906 2.761719 -9.300781 2.878906 -9.300781 L 5.714844 -9.300781 C 5.835938 -9.300781 5.925781 -9.328125 6.015625 -9.421875 C 6.105469 -9.511719 6.148438 -9.613281 6.148438 -9.734375 Z M 6.148438 -9.734375 "/></g></g></g><g fill="#0097b2" fill-opacity="1"><g transform="translate(154.640861, 106.839591)"><g><path d="M 6.855469 0 L 7.710938 0 C 7.84375 0 7.964844 -0.046875 8.054688 -0.164062 C 8.144531 -0.285156 8.160156 -0.40625 8.128906 -0.554688 C 8.054688 -0.808594 7.996094 -1.003906 7.964844 -1.15625 C 7.933594 -1.289062 7.90625 -1.410156 7.875 -1.53125 C 7.84375 -1.636719 7.800781 -1.753906 7.769531 -1.875 C 7.738281 -1.996094 7.679688 -2.175781 7.621094 -2.414062 C 7.558594 -2.65625 7.46875 -2.96875 7.363281 -3.359375 C 7.261719 -3.75 7.125 -4.261719 6.960938 -4.90625 C 6.78125 -5.535156 6.570312 -6.328125 6.316406 -7.273438 C 6.058594 -8.203125 5.761719 -9.34375 5.414062 -10.664062 C 5.386719 -10.753906 5.339844 -10.84375 5.265625 -10.90625 C 5.175781 -10.964844 5.085938 -10.996094 4.996094 -10.996094 L 3.914062 -10.996094 C 3.808594 -10.996094 3.71875 -10.964844 3.644531 -10.90625 C 3.554688 -10.84375 3.511719 -10.753906 3.496094 -10.664062 C 3.40625 -10.378906 3.300781 -9.988281 3.164062 -9.480469 C 3.03125 -8.96875 2.878906 -8.414062 2.714844 -7.785156 C 2.550781 -7.15625 2.371094 -6.496094 2.191406 -5.804688 C 2.011719 -5.113281 1.828125 -4.441406 1.648438 -3.78125 C 1.46875 -3.121094 1.304688 -2.519531 1.15625 -1.949219 C 1.003906 -1.378906 0.871094 -0.914062 0.78125 -0.554688 C 0.734375 -0.40625 0.765625 -0.285156 0.855469 -0.164062 C 0.945312 -0.046875 1.050781 0 1.199219 0 L 2.054688 0 C 2.265625 0 2.398438 -0.105469 2.476562 -0.328125 C 2.519531 -0.480469 2.566406 -0.675781 2.625 -0.898438 C 2.683594 -1.109375 2.746094 -1.363281 2.820312 -1.636719 C 2.878906 -1.84375 3.03125 -1.964844 3.253906 -1.964844 L 5.65625 -1.964844 C 5.863281 -1.964844 6.015625 -1.84375 6.089844 -1.636719 C 6.179688 -1.273438 6.238281 -1.003906 6.300781 -0.796875 C 6.359375 -0.585938 6.40625 -0.433594 6.433594 -0.328125 C 6.496094 -0.105469 6.644531 0 6.855469 0 Z M 3.511719 -4.214844 C 3.601562 -4.53125 3.675781 -4.84375 3.765625 -5.175781 C 3.855469 -5.488281 3.945312 -5.804688 4.035156 -6.136719 C 4.066406 -6.238281 4.109375 -6.316406 4.199219 -6.375 C 4.273438 -6.433594 4.363281 -6.464844 4.453125 -6.464844 C 4.546875 -6.464844 4.621094 -6.433594 4.710938 -6.375 C 4.785156 -6.316406 4.84375 -6.238281 4.875 -6.136719 C 4.964844 -5.773438 5.054688 -5.429688 5.144531 -5.113281 C 5.234375 -4.785156 5.308594 -4.484375 5.398438 -4.214844 C 5.429688 -4.066406 5.414062 -3.945312 5.324219 -3.824219 C 5.234375 -3.703125 5.113281 -3.660156 4.980469 -3.660156 L 3.929688 -3.660156 C 3.78125 -3.660156 3.675781 -3.703125 3.585938 -3.824219 C 3.496094 -3.945312 3.464844 -4.066406 3.511719 -4.214844 Z M 3.511719 -4.214844 "/></g></g></g><g fill="#0097b2" fill-opacity="1"><g transform="translate(164.480854, 106.839591)"><g><path d="M 3.660156 -10.996094 L 1.183594 -10.996094 C 1.066406 -10.996094 0.960938 -10.949219 0.871094 -10.859375 C 0.78125 -10.769531 0.75 -10.679688 0.75 -10.558594 L 0.75 -0.433594 C 0.75 -0.316406 0.78125 -0.210938 0.871094 -0.121094 C 0.960938 -0.03125 1.066406 0 1.183594 0 L 2.011719 0 C 2.128906 0 2.21875 -0.03125 2.308594 -0.121094 C 2.398438 -0.210938 2.445312 -0.316406 2.445312 -0.433594 L 2.445312 -2.835938 C 2.445312 -2.953125 2.476562 -3.046875 2.566406 -3.136719 C 2.65625 -3.226562 2.761719 -3.269531 2.878906 -3.269531 L 3.480469 -3.269531 C 3.691406 -3.269531 3.824219 -3.164062 3.898438 -2.984375 L 4.875 -0.285156 C 4.933594 -0.0898438 5.085938 0 5.296875 0 L 6.148438 0 C 6.300781 0 6.421875 -0.0585938 6.511719 -0.179688 C 6.601562 -0.300781 6.613281 -0.433594 6.570312 -0.585938 L 5.488281 -3.554688 C 5.414062 -3.734375 5.460938 -3.886719 5.609375 -4.019531 C 5.941406 -4.335938 6.210938 -4.726562 6.40625 -5.203125 C 6.601562 -5.671875 6.71875 -6.164062 6.765625 -6.691406 C 6.808594 -7.199219 6.78125 -7.726562 6.675781 -8.234375 C 6.554688 -8.746094 6.375 -9.195312 6.121094 -9.613281 C 5.851562 -10.019531 5.519531 -10.351562 5.113281 -10.605469 C 4.695312 -10.859375 4.214844 -10.996094 3.660156 -10.996094 Z M 2.445312 -5.398438 L 2.445312 -8.863281 C 2.445312 -8.984375 2.476562 -9.074219 2.566406 -9.164062 C 2.65625 -9.253906 2.761719 -9.300781 2.878906 -9.300781 L 3.691406 -9.300781 C 4.003906 -9.300781 4.273438 -9.179688 4.484375 -8.96875 C 4.695312 -8.761719 4.84375 -8.488281 4.949219 -8.175781 C 5.054688 -7.84375 5.113281 -7.5 5.113281 -7.125 C 5.113281 -6.75 5.054688 -6.40625 4.949219 -6.089844 C 4.828125 -5.761719 4.679688 -5.488281 4.46875 -5.28125 C 4.261719 -5.070312 3.988281 -4.964844 3.691406 -4.964844 L 2.878906 -4.964844 C 2.761719 -4.964844 2.65625 -4.996094 2.566406 -5.085938 C 2.476562 -5.175781 2.445312 -5.28125 2.445312 -5.398438 Z M 2.445312 -5.398438 "/></g></g></g><g fill="#0097b2" fill-opacity="1"><g transform="translate(172.95585, 106.839591)"><g><path d="M 7.304688 -10.996094 L 6.496094 -10.996094 C 6.375 -10.996094 6.269531 -10.949219 6.179688 -10.859375 C 6.089844 -10.769531 6.046875 -10.679688 6.046875 -10.558594 L 6.046875 -4.394531 C 6.046875 -4.304688 6 -4.246094 5.925781 -4.230469 C 5.820312 -4.199219 5.761719 -4.230469 5.730469 -4.320312 L 2.730469 -10.738281 C 2.65625 -10.90625 2.519531 -10.996094 2.339844 -10.996094 L 1.183594 -10.996094 C 1.066406 -10.996094 0.960938 -10.949219 0.871094 -10.859375 C 0.78125 -10.769531 0.75 -10.679688 0.75 -10.558594 L 0.75 -0.433594 C 0.75 -0.316406 0.78125 -0.210938 0.871094 -0.121094 C 0.960938 -0.03125 1.066406 0 1.183594 0 L 1.996094 0 C 2.113281 0 2.21875 -0.03125 2.308594 -0.121094 C 2.398438 -0.210938 2.445312 -0.316406 2.445312 -0.433594 L 2.445312 -6.601562 C 2.445312 -6.691406 2.488281 -6.734375 2.578125 -6.765625 C 2.671875 -6.78125 2.730469 -6.75 2.761719 -6.675781 L 5.761719 -0.253906 C 5.835938 -0.0742188 5.96875 0 6.148438 0 L 7.304688 0 C 7.425781 0 7.53125 -0.046875 7.621094 -0.136719 C 7.695312 -0.210938 7.738281 -0.316406 7.738281 -0.433594 L 7.738281 -10.558594 C 7.738281 -10.679688 7.695312 -10.769531 7.605469 -10.859375 C 7.515625 -10.949219 7.425781 -10.996094 7.304688 -10.996094 Z M 7.304688 -10.996094 "/></g></g></g><g fill="#0097b2" fill-opacity="1"><g transform="translate(182.375842, 106.839591)"><g><path d="M 2.011719 -10.996094 L 1.183594 -10.996094 C 1.066406 -10.996094 0.960938 -10.949219 0.871094 -10.859375 C 0.78125 -10.769531 0.75 -10.679688 0.75 -10.558594 L 0.75 -0.433594 C 0.75 -0.316406 0.78125 -0.210938 0.871094 -0.121094 C 0.960938 -0.03125 1.066406 0 1.183594 0 L 2.011719 0 C 2.128906 0 2.21875 -0.03125 2.308594 -0.121094 C 2.398438 -0.210938 2.445312 -0.316406 2.445312 -0.433594 L 2.445312 -10.558594 C 2.445312 -10.679688 2.398438 -10.769531 2.308594 -10.859375 C 2.21875 -10.949219 2.128906 -10.996094 2.011719 -10.996094 Z M 2.011719 -10.996094 "/></g></g></g><g fill="#0097b2" fill-opacity="1"><g transform="translate(186.500836, 106.839591)"><g><path d="M 7.304688 -10.996094 L 6.496094 -10.996094 C 6.375 -10.996094 6.269531 -10.949219 6.179688 -10.859375 C 6.089844 -10.769531 6.046875 -10.679688 6.046875 -10.558594 L 6.046875 -4.394531 C 6.046875 -4.304688 6 -4.246094 5.925781 -4.230469 C 5.820312 -4.199219 5.761719 -4.230469 5.730469 -4.320312 L 2.730469 -10.738281 C 2.65625 -10.90625 2.519531 -10.996094 2.339844 -10.996094 L 1.183594 -10.996094 C 1.066406 -10.996094 0.960938 -10.949219 0.871094 -10.859375 C 0.78125 -10.769531 0.75 -10.679688 0.75 -10.558594 L 0.75 -0.433594 C 0.75 -0.316406 0.78125 -0.210938 0.871094 -0.121094 C 0.960938 -0.03125 1.066406 0 1.183594 0 L 1.996094 0 C 2.113281 0 2.21875 -0.03125 2.308594 -0.121094 C 2.398438 -0.210938 2.445312 -0.316406 2.445312 -0.433594 L 2.445312 -6.601562 C 2.445312 -6.691406 2.488281 -6.734375 2.578125 -6.765625 C 2.671875 -6.78125 2.730469 -6.75 2.761719 -6.675781 L 5.761719 -0.253906 C 5.835938 -0.0742188 5.96875 0 6.148438 0 L 7.304688 0 C 7.425781 0 7.53125 -0.046875 7.621094 -0.136719 C 7.695312 -0.210938 7.738281 -0.316406 7.738281 -0.433594 L 7.738281 -10.558594 C 7.738281 -10.679688 7.695312 -10.769531 7.605469 -10.859375 C 7.515625 -10.949219 7.425781 -10.996094 7.304688 -10.996094 Z M 7.304688 -10.996094 "/></g></g></g><g fill="#0097b2" fill-opacity="1"><g transform="translate(195.920828, 106.839591)"><g><path d="M 9.839844 -5.730469 L 6.105469 -5.730469 C 5.984375 -5.730469 5.878906 -5.683594 5.789062 -5.59375 C 5.699219 -5.503906 5.671875 -5.414062 5.671875 -5.296875 L 5.671875 -4.484375 C 5.671875 -4.351562 5.699219 -4.246094 5.789062 -4.15625 C 5.878906 -4.066406 5.984375 -4.035156 6.105469 -4.035156 L 7.933594 -4.035156 C 8.011719 -4.035156 8.070312 -4.003906 8.113281 -3.945312 C 8.144531 -3.886719 8.160156 -3.808594 8.144531 -3.734375 C 7.996094 -3.285156 7.816406 -2.925781 7.574219 -2.65625 C 7.335938 -2.386719 7.09375 -2.175781 6.824219 -2.023438 C 6.554688 -1.875 6.300781 -1.785156 6.058594 -1.753906 C 5.804688 -1.710938 5.59375 -1.695312 5.414062 -1.695312 C 5.175781 -1.695312 4.890625 -1.726562 4.558594 -1.800781 C 4.230469 -1.875 3.898438 -2.039062 3.585938 -2.308594 C 3.269531 -2.566406 3 -2.941406 2.773438 -3.449219 C 2.550781 -3.945312 2.445312 -4.621094 2.445312 -5.488281 C 2.445312 -6.34375 2.550781 -7.019531 2.773438 -7.53125 C 3 -8.039062 3.269531 -8.414062 3.585938 -8.683594 C 3.898438 -8.941406 4.230469 -9.105469 4.558594 -9.179688 C 4.890625 -9.253906 5.175781 -9.300781 5.414062 -9.300781 C 5.535156 -9.300781 5.683594 -9.285156 5.863281 -9.269531 C 6.046875 -9.238281 6.226562 -9.195312 6.421875 -9.136719 C 6.601562 -9.074219 6.796875 -8.984375 6.988281 -8.863281 C 7.183594 -8.746094 7.363281 -8.578125 7.546875 -8.386719 C 7.636719 -8.296875 7.726562 -8.28125 7.828125 -8.339844 L 8.910156 -8.953125 C 8.96875 -8.984375 9 -9.046875 9.015625 -9.105469 C 9.03125 -9.164062 9.015625 -9.226562 8.984375 -9.285156 C 8.566406 -9.855469 8.039062 -10.273438 7.441406 -10.558594 C 6.839844 -10.84375 6.164062 -10.996094 5.414062 -10.996094 C 4.664062 -10.996094 3.976562 -10.84375 3.375 -10.558594 C 2.773438 -10.273438 2.265625 -9.855469 1.84375 -9.285156 C 1.484375 -8.804688 1.199219 -8.234375 1.019531 -7.605469 C 0.839844 -6.960938 0.75 -6.253906 0.75 -5.488281 C 0.75 -3.945312 1.109375 -2.683594 1.84375 -1.695312 C 2.699219 -0.554688 3.886719 0 5.414062 0 C 6.164062 0 6.839844 -0.136719 7.441406 -0.421875 C 8.039062 -0.703125 8.566406 -1.125 8.984375 -1.695312 C 9.375 -2.234375 9.660156 -2.835938 9.824219 -3.496094 C 9.988281 -4.15625 10.078125 -4.816406 10.078125 -5.503906 C 10.078125 -5.566406 10.050781 -5.609375 10.003906 -5.65625 C 9.960938 -5.699219 9.898438 -5.730469 9.839844 -5.730469 Z M 9.839844 -5.730469 "/></g></g></g><g fill="#0097b2" fill-opacity="1"><g transform="translate(207.680816, 106.839591)"><g/></g></g><g fill="#0097b2" fill-opacity="1"><g transform="translate(213.110814, 106.839591)"><g><path d="M 10.109375 -10.996094 L 9.058594 -10.996094 C 8.851562 -10.996094 8.714844 -10.890625 8.640625 -10.695312 L 5.820312 -2.953125 C 5.789062 -2.863281 5.746094 -2.835938 5.65625 -2.835938 C 5.566406 -2.835938 5.503906 -2.863281 5.476562 -2.953125 L 2.65625 -10.695312 C 2.578125 -10.890625 2.445312 -10.996094 2.234375 -10.996094 L 1.199219 -10.996094 C 1.066406 -10.996094 0.960938 -10.949219 0.871094 -10.859375 C 0.78125 -10.769531 0.75 -10.664062 0.75 -10.546875 L 0.75 -0.449219 C 0.75 -0.316406 0.78125 -0.210938 0.871094 -0.121094 C 0.960938 -0.03125 1.066406 0 1.199219 0 L 1.996094 0 C 2.113281 0 2.21875 -0.03125 2.308594 -0.121094 C 2.398438 -0.210938 2.445312 -0.316406 2.445312 -0.449219 L 2.445312 -5.296875 C 2.445312 -5.386719 2.488281 -5.445312 2.59375 -5.476562 C 2.699219 -5.488281 2.773438 -5.445312 2.804688 -5.355469 L 4.648438 -0.300781 C 4.710938 -0.0898438 4.859375 0 5.070312 0 L 6.238281 0 C 6.328125 0 6.40625 -0.015625 6.496094 -0.0742188 C 6.570312 -0.136719 6.628906 -0.210938 6.660156 -0.300781 L 8.503906 -5.355469 C 8.535156 -5.445312 8.59375 -5.488281 8.714844 -5.476562 C 8.804688 -5.445312 8.863281 -5.386719 8.863281 -5.296875 L 8.863281 -0.449219 C 8.863281 -0.316406 8.894531 -0.210938 8.984375 -0.121094 C 9.074219 -0.03125 9.179688 0 9.300781 0 L 10.109375 0 C 10.230469 0 10.335938 -0.03125 10.425781 -0.121094 C 10.515625 -0.210938 10.558594 -0.316406 10.558594 -0.449219 L 10.558594 -10.546875 C 10.558594 -10.664062 10.515625 -10.769531 10.425781 -10.859375 C 10.335938 -10.949219 10.230469 -10.996094 10.109375 -10.996094 Z M 10.109375 -10.996094 "/></g></g></g><g fill="#0097b2" fill-opacity="1"><g transform="translate(225.350802, 106.839591)"><g><path d="M 6.855469 0 L 7.710938 0 C 7.84375 0 7.964844 -0.046875 8.054688 -0.164062 C 8.144531 -0.285156 8.160156 -0.40625 8.128906 -0.554688 C 8.054688 -0.808594 7.996094 -1.003906 7.964844 -1.15625 C 7.933594 -1.289062 7.90625 -1.410156 7.875 -1.53125 C 7.84375 -1.636719 7.800781 -1.753906 7.769531 -1.875 C 7.738281 -1.996094 7.679688 -2.175781 7.621094 -2.414062 C 7.558594 -2.65625 7.46875 -2.96875 7.363281 -3.359375 C 7.261719 -3.75 7.125 -4.261719 6.960938 -4.90625 C 6.78125 -5.535156 6.570312 -6.328125 6.316406 -7.273438 C 6.058594 -8.203125 5.761719 -9.34375 5.414062 -10.664062 C 5.386719 -10.753906 5.339844 -10.84375 5.265625 -10.90625 C 5.175781 -10.964844 5.085938 -10.996094 4.996094 -10.996094 L 3.914062 -10.996094 C 3.808594 -10.996094 3.71875 -10.964844 3.644531 -10.90625 C 3.554688 -10.84375 3.511719 -10.753906 3.496094 -10.664062 C 3.40625 -10.378906 3.300781 -9.988281 3.164062 -9.480469 C 3.03125 -8.96875 2.878906 -8.414062 2.714844 -7.785156 C 2.550781 -7.15625 2.371094 -6.496094 2.191406 -5.804688 C 2.011719 -5.113281 1.828125 -4.441406 1.648438 -3.78125 C 1.46875 -3.121094 1.304688 -2.519531 1.15625 -1.949219 C 1.003906 -1.378906 0.871094 -0.914062 0.78125 -0.554688 C 0.734375 -0.40625 0.765625 -0.285156 0.855469 -0.164062 C 0.945312 -0.046875 1.050781 0 1.199219 0 L 2.054688 0 C 2.265625 0 2.398438 -0.105469 2.476562 -0.328125 C 2.519531 -0.480469 2.566406 -0.675781 2.625 -0.898438 C 2.683594 -1.109375 2.746094 -1.363281 2.820312 -1.636719 C 2.878906 -1.84375 3.03125 -1.964844 3.253906 -1.964844 L 5.65625 -1.964844 C 5.863281 -1.964844 6.015625 -1.84375 6.089844 -1.636719 C 6.179688 -1.273438 6.238281 -1.003906 6.300781 -0.796875 C 6.359375 -0.585938 6.40625 -0.433594 6.433594 -0.328125 C 6.496094 -0.105469 6.644531 0 6.855469 0 Z M 3.511719 -4.214844 C 3.601562 -4.53125 3.675781 -4.84375 3.765625 -5.175781 C 3.855469 -5.488281 3.945312 -5.804688 4.035156 -6.136719 C 4.066406 -6.238281 4.109375 -6.316406 4.199219 -6.375 C 4.273438 -6.433594 4.363281 -6.464844 4.453125 -6.464844 C 4.546875 -6.464844 4.621094 -6.433594 4.710938 -6.375 C 4.785156 -6.316406 4.84375 -6.238281 4.875 -6.136719 C 4.964844 -5.773438 5.054688 -5.429688 5.144531 -5.113281 C 5.234375 -4.785156 5.308594 -4.484375 5.398438 -4.214844 C 5.429688 -4.066406 5.414062 -3.945312 5.324219 -3.824219 C 5.234375 -3.703125 5.113281 -3.660156 4.980469 -3.660156 L 3.929688 -3.660156 C 3.78125 -3.660156 3.675781 -3.703125 3.585938 -3.824219 C 3.496094 -3.945312 3.464844 -4.066406 3.511719 -4.214844 Z M 3.511719 -4.214844 "/></g></g></g><g fill="#0097b2" fill-opacity="1"><g transform="translate(235.190792, 106.839591)"><g><path d="M 7.304688 -10.996094 L 6.496094 -10.996094 C 6.375 -10.996094 6.269531 -10.949219 6.179688 -10.859375 C 6.089844 -10.769531 6.046875 -10.679688 6.046875 -10.558594 L 6.046875 -4.394531 C 6.046875 -4.304688 6 -4.246094 5.925781 -4.230469 C 5.820312 -4.199219 5.761719 -4.230469 5.730469 -4.320312 L 2.730469 -10.738281 C 2.65625 -10.90625 2.519531 -10.996094 2.339844 -10.996094 L 1.183594 -10.996094 C 1.066406 -10.996094 0.960938 -10.949219 0.871094 -10.859375 C 0.78125 -10.769531 0.75 -10.679688 0.75 -10.558594 L 0.75 -0.433594 C 0.75 -0.316406 0.78125 -0.210938 0.871094 -0.121094 C 0.960938 -0.03125 1.066406 0 1.183594 0 L 1.996094 0 C 2.113281 0 2.21875 -0.03125 2.308594 -0.121094 C 2.398438 -0.210938 2.445312 -0.316406 2.445312 -0.433594 L 2.445312 -6.601562 C 2.445312 -6.691406 2.488281 -6.734375 2.578125 -6.765625 C 2.671875 -6.78125 2.730469 -6.75 2.761719 -6.675781 L 5.761719 -0.253906 C 5.835938 -0.0742188 5.96875 0 6.148438 0 L 7.304688 0 C 7.425781 0 7.53125 -0.046875 7.621094 -0.136719 C 7.695312 -0.210938 7.738281 -0.316406 7.738281 -0.433594 L 7.738281 -10.558594 C 7.738281 -10.679688 7.695312 -10.769531 7.605469 -10.859375 C 7.515625 -10.949219 7.425781 -10.996094 7.304688 -10.996094 Z M 7.304688 -10.996094 "/></g></g></g><g fill="#0097b2" fill-opacity="1"><g transform="translate(244.610789, 106.839591)"><g><path d="M 6.855469 0 L 7.710938 0 C 7.84375 0 7.964844 -0.046875 8.054688 -0.164062 C 8.144531 -0.285156 8.160156 -0.40625 8.128906 -0.554688 C 8.054688 -0.808594 7.996094 -1.003906 7.964844 -1.15625 C 7.933594 -1.289062 7.90625 -1.410156 7.875 -1.53125 C 7.84375 -1.636719 7.800781 -1.753906 7.769531 -1.875 C 7.738281 -1.996094 7.679688 -2.175781 7.621094 -2.414062 C 7.558594 -2.65625 7.46875 -2.96875 7.363281 -3.359375 C 7.261719 -3.75 7.125 -4.261719 6.960938 -4.90625 C 6.78125 -5.535156 6.570312 -6.328125 6.316406 -7.273438 C 6.058594 -8.203125 5.761719 -9.34375 5.414062 -10.664062 C 5.386719 -10.753906 5.339844 -10.84375 5.265625 -10.90625 C 5.175781 -10.964844 5.085938 -10.996094 4.996094 -10.996094 L 3.914062 -10.996094 C 3.808594 -10.996094 3.71875 -10.964844 3.644531 -10.90625 C 3.554688 -10.84375 3.511719 -10.753906 3.496094 -10.664062 C 3.40625 -10.378906 3.300781 -9.988281 3.164062 -9.480469 C 3.03125 -8.96875 2.878906 -8.414062 2.714844 -7.785156 C 2.550781 -7.15625 2.371094 -6.496094 2.191406 -5.804688 C 2.011719 -5.113281 1.828125 -4.441406 1.648438 -3.78125 C 1.46875 -3.121094 1.304688 -2.519531 1.15625 -1.949219 C 1.003906 -1.378906 0.871094 -0.914062 0.78125 -0.554688 C 0.734375 -0.40625 0.765625 -0.285156 0.855469 -0.164062 C 0.945312 -0.046875 1.050781 0 1.199219 0 L 2.054688 0 C 2.265625 0 2.398438 -0.105469 2.476562 -0.328125 C 2.519531 -0.480469 2.566406 -0.675781 2.625 -0.898438 C 2.683594 -1.109375 2.746094 -1.363281 2.820312 -1.636719 C 2.878906 -1.84375 3.03125 -1.964844 3.253906 -1.964844 L 5.65625 -1.964844 C 5.863281 -1.964844 6.015625 -1.84375 6.089844 -1.636719 C 6.179688 -1.273438 6.238281 -1.003906 6.300781 -0.796875 C 6.359375 -0.585938 6.40625 -0.433594 6.433594 -0.328125 C 6.496094 -0.105469 6.644531 0 6.855469 0 Z M 3.511719 -4.214844 C 3.601562 -4.53125 3.675781 -4.84375 3.765625 -5.175781 C 3.855469 -5.488281 3.945312 -5.804688 4.035156 -6.136719 C 4.066406 -6.238281 4.109375 -6.316406 4.199219 -6.375 C 4.273438 -6.433594 4.363281 -6.464844 4.453125 -6.464844 C 4.546875 -6.464844 4.621094 -6.433594 4.710938 -6.375 C 4.785156 -6.316406 4.84375 -6.238281 4.875 -6.136719 C 4.964844 -5.773438 5.054688 -5.429688 5.144531 -5.113281 C 5.234375 -4.785156 5.308594 -4.484375 5.398438 -4.214844 C 5.429688 -4.066406 5.414062 -3.945312 5.324219 -3.824219 C 5.234375 -3.703125 5.113281 -3.660156 4.980469 -3.660156 L 3.929688 -3.660156 C 3.78125 -3.660156 3.675781 -3.703125 3.585938 -3.824219 C 3.496094 -3.945312 3.464844 -4.066406 3.511719 -4.214844 Z M 3.511719 -4.214844 "/></g></g></g><g fill="#0097b2" fill-opacity="1"><g transform="translate(254.450785, 106.839591)"><g><path d="M 9.839844 -5.730469 L 6.105469 -5.730469 C 5.984375 -5.730469 5.878906 -5.683594 5.789062 -5.59375 C 5.699219 -5.503906 5.671875 -5.414062 5.671875 -5.296875 L 5.671875 -4.484375 C 5.671875 -4.351562 5.699219 -4.246094 5.789062 -4.15625 C 5.878906 -4.066406 5.984375 -4.035156 6.105469 -4.035156 L 7.933594 -4.035156 C 8.011719 -4.035156 8.070312 -4.003906 8.113281 -3.945312 C 8.144531 -3.886719 8.160156 -3.808594 8.144531 -3.734375 C 7.996094 -3.285156 7.816406 -2.925781 7.574219 -2.65625 C 7.335938 -2.386719 7.09375 -2.175781 6.824219 -2.023438 C 6.554688 -1.875 6.300781 -1.785156 6.058594 -1.753906 C 5.804688 -1.710938 5.59375 -1.695312 5.414062 -1.695312 C 5.175781 -1.695312 4.890625 -1.726562 4.558594 -1.800781 C 4.230469 -1.875 3.898438 -2.039062 3.585938 -2.308594 C 3.269531 -2.566406 3 -2.941406 2.773438 -3.449219 C 2.550781 -3.945312 2.445312 -4.621094 2.445312 -5.488281 C 2.445312 -6.34375 2.550781 -7.019531 2.773438 -7.53125 C 3 -8.039062 3.269531 -8.414062 3.585938 -8.683594 C 3.898438 -8.941406 4.230469 -9.105469 4.558594 -9.179688 C 4.890625 -9.253906 5.175781 -9.300781 5.414062 -9.300781 C 5.535156 -9.300781 5.683594 -9.285156 5.863281 -9.269531 C 6.046875 -9.238281 6.226562 -9.195312 6.421875 -9.136719 C 6.601562 -9.074219 6.796875 -8.984375 6.988281 -8.863281 C 7.183594 -8.746094 7.363281 -8.578125 7.546875 -8.386719 C 7.636719 -8.296875 7.726562 -8.28125 7.828125 -8.339844 L 8.910156 -8.953125 C 8.96875 -8.984375 9 -9.046875 9.015625 -9.105469 C 9.03125 -9.164062 9.015625 -9.226562 8.984375 -9.285156 C 8.566406 -9.855469 8.039062 -10.273438 7.441406 -10.558594 C 6.839844 -10.84375 6.164062 -10.996094 5.414062 -10.996094 C 4.664062 -10.996094 3.976562 -10.84375 3.375 -10.558594 C 2.773438 -10.273438 2.265625 -9.855469 1.84375 -9.285156 C 1.484375 -8.804688 1.199219 -8.234375 1.019531 -7.605469 C 0.839844 -6.960938 0.75 -6.253906 0.75 -5.488281 C 0.75 -3.945312 1.109375 -2.683594 1.84375 -1.695312 C 2.699219 -0.554688 3.886719 0 5.414062 0 C 6.164062 0 6.839844 -0.136719 7.441406 -0.421875 C 8.039062 -0.703125 8.566406 -1.125 8.984375 -1.695312 C 9.375 -2.234375 9.660156 -2.835938 9.824219 -3.496094 C 9.988281 -4.15625 10.078125 -4.816406 10.078125 -5.503906 C 10.078125 -5.566406 10.050781 -5.609375 10.003906 -5.65625 C 9.960938 -5.699219 9.898438 -5.730469 9.839844 -5.730469 Z M 9.839844 -5.730469 "/></g></g></g><g fill="#0097b2" fill-opacity="1"><g transform="translate(266.210779, 106.839591)"><g><path d="M 6.148438 -9.734375 L 6.148438 -10.558594 C 6.148438 -10.679688 6.105469 -10.769531 6.015625 -10.859375 C 5.925781 -10.949219 5.835938 -10.996094 5.714844 -10.996094 L 1.183594 -10.996094 C 1.066406 -10.996094 0.960938 -10.949219 0.871094 -10.859375 C 0.78125 -10.769531 0.75 -10.679688 0.75 -10.558594 L 0.75 -0.433594 C 0.75 -0.316406 0.78125 -0.210938 0.871094 -0.121094 C 0.960938 -0.03125 1.066406 0 1.183594 0 L 5.714844 0 C 5.835938 0 5.925781 -0.03125 6.015625 -0.121094 C 6.105469 -0.210938 6.148438 -0.316406 6.148438 -0.433594 L 6.148438 -1.261719 C 6.148438 -1.378906 6.105469 -1.46875 6.015625 -1.558594 C 5.925781 -1.648438 5.835938 -1.695312 5.714844 -1.695312 L 2.878906 -1.695312 C 2.761719 -1.695312 2.65625 -1.726562 2.566406 -1.816406 C 2.476562 -1.90625 2.445312 -2.011719 2.445312 -2.128906 L 2.445312 -5.398438 C 2.445312 -5.519531 2.476562 -5.609375 2.566406 -5.699219 C 2.65625 -5.789062 2.761719 -5.835938 2.878906 -5.835938 L 4.753906 -5.835938 C 4.875 -5.835938 4.980469 -5.878906 5.070312 -5.96875 C 5.160156 -6.058594 5.203125 -6.164062 5.203125 -6.285156 L 5.203125 -7.09375 C 5.203125 -7.214844 5.160156 -7.304688 5.070312 -7.394531 C 4.980469 -7.484375 4.875 -7.53125 4.753906 -7.53125 L 2.878906 -7.53125 C 2.761719 -7.53125 2.65625 -7.558594 2.566406 -7.648438 C 2.476562 -7.738281 2.445312 -7.84375 2.445312 -7.964844 L 2.445312 -8.863281 C 2.445312 -8.984375 2.476562 -9.074219 2.566406 -9.164062 C 2.65625 -9.253906 2.761719 -9.300781 2.878906 -9.300781 L 5.714844 -9.300781 C 5.835938 -9.300781 5.925781 -9.328125 6.015625 -9.421875 C 6.105469 -9.511719 6.148438 -9.613281 6.148438 -9.734375 Z M 6.148438 -9.734375 "/></g></g></g><g fill="#0097b2" fill-opacity="1"><g transform="translate(274.04078, 106.839591)"><g><path d="M 10.109375 -10.996094 L 9.058594 -10.996094 C 8.851562 -10.996094 8.714844 -10.890625 8.640625 -10.695312 L 5.820312 -2.953125 C 5.789062 -2.863281 5.746094 -2.835938 5.65625 -2.835938 C 5.566406 -2.835938 5.503906 -2.863281 5.476562 -2.953125 L 2.65625 -10.695312 C 2.578125 -10.890625 2.445312 -10.996094 2.234375 -10.996094 L 1.199219 -10.996094 C 1.066406 -10.996094 0.960938 -10.949219 0.871094 -10.859375 C 0.78125 -10.769531 0.75 -10.664062 0.75 -10.546875 L 0.75 -0.449219 C 0.75 -0.316406 0.78125 -0.210938 0.871094 -0.121094 C 0.960938 -0.03125 1.066406 0 1.199219 0 L 1.996094 0 C 2.113281 0 2.21875 -0.03125 2.308594 -0.121094 C 2.398438 -0.210938 2.445312 -0.316406 2.445312 -0.449219 L 2.445312 -5.296875 C 2.445312 -5.386719 2.488281 -5.445312 2.59375 -5.476562 C 2.699219 -5.488281 2.773438 -5.445312 2.804688 -5.355469 L 4.648438 -0.300781 C 4.710938 -0.0898438 4.859375 0 5.070312 0 L 6.238281 0 C 6.328125 0 6.40625 -0.015625 6.496094 -0.0742188 C 6.570312 -0.136719 6.628906 -0.210938 6.660156 -0.300781 L 8.503906 -5.355469 C 8.535156 -5.445312 8.59375 -5.488281 8.714844 -5.476562 C 8.804688 -5.445312 8.863281 -5.386719 8.863281 -5.296875 L 8.863281 -0.449219 C 8.863281 -0.316406 8.894531 -0.210938 8.984375 -0.121094 C 9.074219 -0.03125 9.179688 0 9.300781 0 L 10.109375 0 C 10.230469 0 10.335938 -0.03125 10.425781 -0.121094 C 10.515625 -0.210938 10.558594 -0.316406 10.558594 -0.449219 L 10.558594 -10.546875 C 10.558594 -10.664062 10.515625 -10.769531 10.425781 -10.859375 C 10.335938 -10.949219 10.230469 -10.996094 10.109375 -10.996094 Z M 10.109375 -10.996094 "/></g></g></g><g fill="#0097b2" fill-opacity="1"><g transform="translate(286.280774, 106.839591)"><g><path d="M 6.148438 -9.734375 L 6.148438 -10.558594 C 6.148438 -10.679688 6.105469 -10.769531 6.015625 -10.859375 C 5.925781 -10.949219 5.835938 -10.996094 5.714844 -10.996094 L 1.183594 -10.996094 C 1.066406 -10.996094 0.960938 -10.949219 0.871094 -10.859375 C 0.78125 -10.769531 0.75 -10.679688 0.75 -10.558594 L 0.75 -0.433594 C 0.75 -0.316406 0.78125 -0.210938 0.871094 -0.121094 C 0.960938 -0.03125 1.066406 0 1.183594 0 L 5.714844 0 C 5.835938 0 5.925781 -0.03125 6.015625 -0.121094 C 6.105469 -0.210938 6.148438 -0.316406 6.148438 -0.433594 L 6.148438 -1.261719 C 6.148438 -1.378906 6.105469 -1.46875 6.015625 -1.558594 C 5.925781 -1.648438 5.835938 -1.695312 5.714844 -1.695312 L 2.878906 -1.695312 C 2.761719 -1.695312 2.65625 -1.726562 2.566406 -1.816406 C 2.476562 -1.90625 2.445312 -2.011719 2.445312 -2.128906 L 2.445312 -5.398438 C 2.445312 -5.519531 2.476562 -5.609375 2.566406 -5.699219 C 2.65625 -5.789062 2.761719 -5.835938 2.878906 -5.835938 L 4.753906 -5.835938 C 4.875 -5.835938 4.980469 -5.878906 5.070312 -5.96875 C 5.160156 -6.058594 5.203125 -6.164062 5.203125 -6.285156 L 5.203125 -7.09375 C 5.203125 -7.214844 5.160156 -7.304688 5.070312 -7.394531 C 4.980469 -7.484375 4.875 -7.53125 4.753906 -7.53125 L 2.878906 -7.53125 C 2.761719 -7.53125 2.65625 -7.558594 2.566406 -7.648438 C 2.476562 -7.738281 2.445312 -7.84375 2.445312 -7.964844 L 2.445312 -8.863281 C 2.445312 -8.984375 2.476562 -9.074219 2.566406 -9.164062 C 2.65625 -9.253906 2.761719 -9.300781 2.878906 -9.300781 L 5.714844 -9.300781 C 5.835938 -9.300781 5.925781 -9.328125 6.015625 -9.421875 C 6.105469 -9.511719 6.148438 -9.613281 6.148438 -9.734375 Z M 6.148438 -9.734375 "/></g></g></g><g fill="#0097b2" fill-opacity="1"><g transform="translate(294.110775, 106.839591)"><g><path d="M 7.304688 -10.996094 L 6.496094 -10.996094 C 6.375 -10.996094 6.269531 -10.949219 6.179688 -10.859375 C 6.089844 -10.769531 6.046875 -10.679688 6.046875 -10.558594 L 6.046875 -4.394531 C 6.046875 -4.304688 6 -4.246094 5.925781 -4.230469 C 5.820312 -4.199219 5.761719 -4.230469 5.730469 -4.320312 L 2.730469 -10.738281 C 2.65625 -10.90625 2.519531 -10.996094 2.339844 -10.996094 L 1.183594 -10.996094 C 1.066406 -10.996094 0.960938 -10.949219 0.871094 -10.859375 C 0.78125 -10.769531 0.75 -10.679688 0.75 -10.558594 L 0.75 -0.433594 C 0.75 -0.316406 0.78125 -0.210938 0.871094 -0.121094 C 0.960938 -0.03125 1.066406 0 1.183594 0 L 1.996094 0 C 2.113281 0 2.21875 -0.03125 2.308594 -0.121094 C 2.398438 -0.210938 2.445312 -0.316406 2.445312 -0.433594 L 2.445312 -6.601562 C 2.445312 -6.691406 2.488281 -6.734375 2.578125 -6.765625 C 2.671875 -6.78125 2.730469 -6.75 2.761719 -6.675781 L 5.761719 -0.253906 C 5.835938 -0.0742188 5.96875 0 6.148438 0 L 7.304688 0 C 7.425781 0 7.53125 -0.046875 7.621094 -0.136719 C 7.695312 -0.210938 7.738281 -0.316406 7.738281 -0.433594 L 7.738281 -10.558594 C 7.738281 -10.679688 7.695312 -10.769531 7.605469 -10.859375 C 7.515625 -10.949219 7.425781 -10.996094 7.304688 -10.996094 Z M 7.304688 -10.996094 "/></g></g></g><g fill="#0097b2" fill-opacity="1"><g transform="translate(303.530773, 106.839591)"><g><path d="M 6.945312 -9.734375 L 6.945312 -10.558594 C 6.945312 -10.679688 6.898438 -10.769531 6.808594 -10.859375 C 6.71875 -10.949219 6.613281 -10.996094 6.496094 -10.996094 L 1.183594 -10.996094 C 1.066406 -10.996094 0.960938 -10.949219 0.871094 -10.859375 C 0.78125 -10.769531 0.75 -10.679688 0.75 -10.558594 L 0.75 -9.734375 C 0.75 -9.613281 0.78125 -9.511719 0.871094 -9.421875 C 0.960938 -9.328125 1.066406 -9.300781 1.183594 -9.300781 L 2.566406 -9.300781 C 2.683594 -9.300781 2.773438 -9.253906 2.863281 -9.164062 C 2.953125 -9.074219 3 -8.984375 3 -8.863281 L 3 -0.433594 C 3 -0.316406 3.03125 -0.210938 3.121094 -0.121094 C 3.210938 -0.03125 3.316406 0 3.433594 0 L 4.246094 0 C 4.363281 0 4.46875 -0.03125 4.558594 -0.121094 C 4.648438 -0.210938 4.695312 -0.316406 4.695312 -0.433594 L 4.695312 -8.863281 C 4.695312 -8.984375 4.726562 -9.074219 4.816406 -9.164062 C 4.90625 -9.253906 5.011719 -9.300781 5.128906 -9.300781 L 6.496094 -9.300781 C 6.613281 -9.300781 6.71875 -9.328125 6.808594 -9.421875 C 6.898438 -9.511719 6.945312 -9.613281 6.945312 -9.734375 Z M 6.945312 -9.734375 "/></g></g></g><g fill="#0097b2" fill-opacity="1"><g transform="translate(312.155772, 106.839591)"><g/></g></g><g fill="#0097b2" fill-opacity="1"><g transform="translate(317.585776, 106.839591)"><g><path d="M 3.433594 -10.996094 C 2.550781 -10.996094 1.890625 -10.753906 1.453125 -10.289062 C 1.003906 -9.808594 0.796875 -9.148438 0.796875 -8.296875 C 0.796875 -7.980469 0.824219 -7.695312 0.886719 -7.425781 C 0.945312 -7.15625 1.066406 -6.886719 1.214844 -6.613281 C 1.363281 -6.34375 1.574219 -6.074219 1.828125 -5.804688 C 2.070312 -5.535156 2.386719 -5.234375 2.761719 -4.933594 C 3.046875 -4.695312 3.285156 -4.46875 3.480469 -4.261719 C 3.675781 -4.050781 3.839844 -3.871094 3.960938 -3.691406 C 4.078125 -3.511719 4.15625 -3.328125 4.214844 -3.148438 C 4.261719 -2.96875 4.289062 -2.773438 4.289062 -2.59375 C 4.289062 -2.203125 4.199219 -1.933594 4.035156 -1.785156 C 3.871094 -1.621094 3.644531 -1.546875 3.359375 -1.546875 C 3.058594 -1.546875 2.835938 -1.621094 2.683594 -1.785156 C 2.519531 -1.933594 2.445312 -2.203125 2.445312 -2.59375 L 2.445312 -3.03125 C 2.445312 -3.121094 2.398438 -3.195312 2.339844 -3.253906 C 2.265625 -3.316406 2.191406 -3.359375 2.101562 -3.359375 L 1.078125 -3.359375 C 0.988281 -3.359375 0.898438 -3.316406 0.839844 -3.253906 C 0.78125 -3.195312 0.75 -3.121094 0.75 -3.03125 L 0.75 -2.699219 C 0.75 -1.828125 0.976562 -1.15625 1.425781 -0.691406 C 1.875 -0.226562 2.535156 0 3.421875 0 C 4.289062 0 4.949219 -0.226562 5.398438 -0.691406 C 5.851562 -1.15625 6.074219 -1.828125 6.074219 -2.699219 C 6.074219 -3 6.03125 -3.300781 5.96875 -3.570312 C 5.910156 -3.839844 5.804688 -4.09375 5.65625 -4.363281 C 5.503906 -4.636719 5.296875 -4.90625 5.039062 -5.175781 C 4.785156 -5.445312 4.46875 -5.746094 4.109375 -6.058594 C 3.808594 -6.300781 3.570312 -6.511719 3.375 -6.71875 C 3.179688 -6.929688 3.03125 -7.125 2.910156 -7.304688 C 2.789062 -7.484375 2.699219 -7.648438 2.65625 -7.828125 C 2.59375 -8.011719 2.578125 -8.191406 2.578125 -8.398438 C 2.578125 -8.773438 2.65625 -9.046875 2.804688 -9.210938 C 2.953125 -9.375 3.179688 -9.464844 3.480469 -9.464844 C 3.765625 -9.464844 3.988281 -9.375 4.140625 -9.210938 C 4.289062 -9.046875 4.363281 -8.773438 4.363281 -8.398438 L 4.363281 -8.296875 C 4.363281 -8.191406 4.394531 -8.101562 4.453125 -8.039062 C 4.515625 -7.980469 4.605469 -7.949219 4.710938 -7.949219 L 5.714844 -7.949219 C 5.804688 -7.949219 5.894531 -7.980469 5.953125 -8.039062 C 6.015625 -8.101562 6.058594 -8.191406 6.058594 -8.296875 C 6.058594 -9.148438 5.835938 -9.808594 5.398438 -10.289062 C 4.949219 -10.753906 4.304688 -10.996094 3.433594 -10.996094 Z M 3.433594 -10.996094 "/></g></g></g><g fill="#0097b2" fill-opacity="1"><g transform="translate(325.340773, 106.839591)"><g><path d="M 3.328125 -3.40625 L 3.328125 -0.433594 C 3.328125 -0.316406 3.375 -0.210938 3.464844 -0.121094 C 3.554688 -0.03125 3.660156 0 3.78125 0 L 4.589844 0 C 4.710938 0 4.800781 -0.03125 4.890625 -0.121094 C 4.980469 -0.210938 5.023438 -0.316406 5.023438 -0.433594 L 5.023438 -3.40625 L 7.574219 -10.410156 C 7.621094 -10.558594 7.605469 -10.679688 7.515625 -10.800781 C 7.425781 -10.921875 7.304688 -10.996094 7.15625 -10.996094 L 6.300781 -10.996094 C 6.089844 -10.996094 5.941406 -10.890625 5.878906 -10.710938 L 4.304688 -6.359375 C 4.273438 -6.300781 4.246094 -6.285156 4.183594 -6.285156 C 4.125 -6.285156 4.078125 -6.300781 4.066406 -6.359375 L 2.476562 -10.710938 C 2.398438 -10.890625 2.265625 -10.996094 2.070312 -10.996094 L 1.199219 -10.996094 C 1.050781 -10.996094 0.929688 -10.921875 0.839844 -10.800781 C 0.796875 -10.738281 0.765625 -10.679688 0.765625 -10.621094 C 0.75 -10.546875 0.765625 -10.46875 0.796875 -10.410156 Z M 3.328125 -3.40625 "/></g></g></g><g fill="#0097b2" fill-opacity="1"><g transform="translate(334.625764, 106.839591)"><g><path d="M 3.433594 -10.996094 C 2.550781 -10.996094 1.890625 -10.753906 1.453125 -10.289062 C 1.003906 -9.808594 0.796875 -9.148438 0.796875 -8.296875 C 0.796875 -7.980469 0.824219 -7.695312 0.886719 -7.425781 C 0.945312 -7.15625 1.066406 -6.886719 1.214844 -6.613281 C 1.363281 -6.34375 1.574219 -6.074219 1.828125 -5.804688 C 2.070312 -5.535156 2.386719 -5.234375 2.761719 -4.933594 C 3.046875 -4.695312 3.285156 -4.46875 3.480469 -4.261719 C 3.675781 -4.050781 3.839844 -3.871094 3.960938 -3.691406 C 4.078125 -3.511719 4.15625 -3.328125 4.214844 -3.148438 C 4.261719 -2.96875 4.289062 -2.773438 4.289062 -2.59375 C 4.289062 -2.203125 4.199219 -1.933594 4.035156 -1.785156 C 3.871094 -1.621094 3.644531 -1.546875 3.359375 -1.546875 C 3.058594 -1.546875 2.835938 -1.621094 2.683594 -1.785156 C 2.519531 -1.933594 2.445312 -2.203125 2.445312 -2.59375 L 2.445312 -3.03125 C 2.445312 -3.121094 2.398438 -3.195312 2.339844 -3.253906 C 2.265625 -3.316406 2.191406 -3.359375 2.101562 -3.359375 L 1.078125 -3.359375 C 0.988281 -3.359375 0.898438 -3.316406 0.839844 -3.253906 C 0.78125 -3.195312 0.75 -3.121094 0.75 -3.03125 L 0.75 -2.699219 C 0.75 -1.828125 0.976562 -1.15625 1.425781 -0.691406 C 1.875 -0.226562 2.535156 0 3.421875 0 C 4.289062 0 4.949219 -0.226562 5.398438 -0.691406 C 5.851562 -1.15625 6.074219 -1.828125 6.074219 -2.699219 C 6.074219 -3 6.03125 -3.300781 5.96875 -3.570312 C 5.910156 -3.839844 5.804688 -4.09375 5.65625 -4.363281 C 5.503906 -4.636719 5.296875 -4.90625 5.039062 -5.175781 C 4.785156 -5.445312 4.46875 -5.746094 4.109375 -6.058594 C 3.808594 -6.300781 3.570312 -6.511719 3.375 -6.71875 C 3.179688 -6.929688 3.03125 -7.125 2.910156 -7.304688 C 2.789062 -7.484375 2.699219 -7.648438 2.65625 -7.828125 C 2.59375 -8.011719 2.578125 -8.191406 2.578125 -8.398438 C 2.578125 -8.773438 2.65625 -9.046875 2.804688 -9.210938 C 2.953125 -9.375 3.179688 -9.464844 3.480469 -9.464844 C 3.765625 -9.464844 3.988281 -9.375 4.140625 -9.210938 C 4.289062 -9.046875 4.363281 -8.773438 4.363281 -8.398438 L 4.363281 -8.296875 C 4.363281 -8.191406 4.394531 -8.101562 4.453125 -8.039062 C 4.515625 -7.980469 4.605469 -7.949219 4.710938 -7.949219 L 5.714844 -7.949219 C 5.804688 -7.949219 5.894531 -7.980469 5.953125 -8.039062 C 6.015625 -8.101562 6.058594 -8.191406 6.058594 -8.296875 C 6.058594 -9.148438 5.835938 -9.808594 5.398438 -10.289062 C 4.949219 -10.753906 4.304688 -10.996094 3.433594 -10.996094 Z M 3.433594 -10.996094 "/></g></g></g><g fill="#0097b2" fill-opacity="1"><g transform="translate(342.380761, 106.839591)"><g><path d="M 6.945312 -9.734375 L 6.945312 -10.558594 C 6.945312 -10.679688 6.898438 -10.769531 6.808594 -10.859375 C 6.71875 -10.949219 6.613281 -10.996094 6.496094 -10.996094 L 1.183594 -10.996094 C 1.066406 -10.996094 0.960938 -10.949219 0.871094 -10.859375 C 0.78125 -10.769531 0.75 -10.679688 0.75 -10.558594 L 0.75 -9.734375 C 0.75 -9.613281 0.78125 -9.511719 0.871094 -9.421875 C 0.960938 -9.328125 1.066406 -9.300781 1.183594 -9.300781 L 2.566406 -9.300781 C 2.683594 -9.300781 2.773438 -9.253906 2.863281 -9.164062 C 2.953125 -9.074219 3 -8.984375 3 -8.863281 L 3 -0.433594 C 3 -0.316406 3.03125 -0.210938 3.121094 -0.121094 C 3.210938 -0.03125 3.316406 0 3.433594 0 L 4.246094 0 C 4.363281 0 4.46875 -0.03125 4.558594 -0.121094 C 4.648438 -0.210938 4.695312 -0.316406 4.695312 -0.433594 L 4.695312 -8.863281 C 4.695312 -8.984375 4.726562 -9.074219 4.816406 -9.164062 C 4.90625 -9.253906 5.011719 -9.300781 5.128906 -9.300781 L 6.496094 -9.300781 C 6.613281 -9.300781 6.71875 -9.328125 6.808594 -9.421875 C 6.898438 -9.511719 6.945312 -9.613281 6.945312 -9.734375 Z M 6.945312 -9.734375 "/></g></g></g><g fill="#0097b2" fill-opacity="1"><g transform="translate(351.005761, 106.839591)"><g><path d="M 6.148438 -9.734375 L 6.148438 -10.558594 C 6.148438 -10.679688 6.105469 -10.769531 6.015625 -10.859375 C 5.925781 -10.949219 5.835938 -10.996094 5.714844 -10.996094 L 1.183594 -10.996094 C 1.066406 -10.996094 0.960938 -10.949219 0.871094 -10.859375 C 0.78125 -10.769531 0.75 -10.679688 0.75 -10.558594 L 0.75 -0.433594 C 0.75 -0.316406 0.78125 -0.210938 0.871094 -0.121094 C 0.960938 -0.03125 1.066406 0 1.183594 0 L 5.714844 0 C 5.835938 0 5.925781 -0.03125 6.015625 -0.121094 C 6.105469 -0.210938 6.148438 -0.316406 6.148438 -0.433594 L 6.148438 -1.261719 C 6.148438 -1.378906 6.105469 -1.46875 6.015625 -1.558594 C 5.925781 -1.648438 5.835938 -1.695312 5.714844 -1.695312 L 2.878906 -1.695312 C 2.761719 -1.695312 2.65625 -1.726562 2.566406 -1.816406 C 2.476562 -1.90625 2.445312 -2.011719 2.445312 -2.128906 L 2.445312 -5.398438 C 2.445312 -5.519531 2.476562 -5.609375 2.566406 -5.699219 C 2.65625 -5.789062 2.761719 -5.835938 2.878906 -5.835938 L 4.753906 -5.835938 C 4.875 -5.835938 4.980469 -5.878906 5.070312 -5.96875 C 5.160156 -6.058594 5.203125 -6.164062 5.203125 -6.285156 L 5.203125 -7.09375 C 5.203125 -7.214844 5.160156 -7.304688 5.070312 -7.394531 C 4.980469 -7.484375 4.875 -7.53125 4.753906 -7.53125 L 2.878906 -7.53125 C 2.761719 -7.53125 2.65625 -7.558594 2.566406 -7.648438 C 2.476562 -7.738281 2.445312 -7.84375 2.445312 -7.964844 L 2.445312 -8.863281 C 2.445312 -8.984375 2.476562 -9.074219 2.566406 -9.164062 C 2.65625 -9.253906 2.761719 -9.300781 2.878906 -9.300781 L 5.714844 -9.300781 C 5.835938 -9.300781 5.925781 -9.328125 6.015625 -9.421875 C 6.105469 -9.511719 6.148438 -9.613281 6.148438 -9.734375 Z M 6.148438 -9.734375 "/></g></g></g><g fill="#0097b2" fill-opacity="1"><g transform="translate(358.835762, 106.839591)"><g><path d="M 10.109375 -10.996094 L 9.058594 -10.996094 C 8.851562 -10.996094 8.714844 -10.890625 8.640625 -10.695312 L 5.820312 -2.953125 C 5.789062 -2.863281 5.746094 -2.835938 5.65625 -2.835938 C 5.566406 -2.835938 5.503906 -2.863281 5.476562 -2.953125 L 2.65625 -10.695312 C 2.578125 -10.890625 2.445312 -10.996094 2.234375 -10.996094 L 1.199219 -10.996094 C 1.066406 -10.996094 0.960938 -10.949219 0.871094 -10.859375 C 0.78125 -10.769531 0.75 -10.664062 0.75 -10.546875 L 0.75 -0.449219 C 0.75 -0.316406 0.78125 -0.210938 0.871094 -0.121094 C 0.960938 -0.03125 1.066406 0 1.199219 0 L 1.996094 0 C 2.113281 0 2.21875 -0.03125 2.308594 -0.121094 C 2.398438 -0.210938 2.445312 -0.316406 2.445312 -0.449219 L 2.445312 -5.296875 C 2.445312 -5.386719 2.488281 -5.445312 2.59375 -5.476562 C 2.699219 -5.488281 2.773438 -5.445312 2.804688 -5.355469 L 4.648438 -0.300781 C 4.710938 -0.0898438 4.859375 0 5.070312 0 L 6.238281 0 C 6.328125 0 6.40625 -0.015625 6.496094 -0.0742188 C 6.570312 -0.136719 6.628906 -0.210938 6.660156 -0.300781 L 8.503906 -5.355469 C 8.535156 -5.445312 8.59375 -5.488281 8.714844 -5.476562 C 8.804688 -5.445312 8.863281 -5.386719 8.863281 -5.296875 L 8.863281 -0.449219 C 8.863281 -0.316406 8.894531 -0.210938 8.984375 -0.121094 C 9.074219 -0.03125 9.179688 0 9.300781 0 L 10.109375 0 C 10.230469 0 10.335938 -0.03125 10.425781 -0.121094 C 10.515625 -0.210938 10.558594 -0.316406 10.558594 -0.449219 L 10.558594 -10.546875 C 10.558594 -10.664062 10.515625 -10.769531 10.425781 -10.859375 C 10.335938 -10.949219 10.230469 -10.996094 10.109375 -10.996094 Z M 10.109375 -10.996094 "/></g></g></g></svg>