<?xml version="1.0" encoding="utf-8"?>
<!-- Generator: Adobe Illustrator 16.0.0, SVG Export Plug-In . SVG Version: 6.00 Build 0)  -->
<!DOCTYPE svg PUBLIC "-//W3C//DTD SVG 1.1//EN" "http://www.w3.org/Graphics/SVG/1.1/DTD/svg11.dtd">
<svg version="1.1" id="Layer_1" xmlns="http://www.w3.org/2000/svg" xmlns:xlink="http://www.w3.org/1999/xlink" x="0px" y="0px"
	 width="500px" height="500px" viewBox="0 0 500 500" enable-background="new 0 0 500 500" xml:space="preserve">
<g>
	<path fill="#FFFFFF" d="M375.696,61.837c-0.35,5.348-4.083,9.897-9.124,11.723l-105.59,38.288
		c-1.457,0.526-2.982,0.793-4.514,0.793c-1.525,0-3.058-0.267-4.51-0.793l-98.257-35.621c-3.105-1.129-4.617-4.699-3.167-7.756
		c1.259-2.674,4.473-3.81,7.25-2.805l98.019,35.539c0.431,0.151,0.902,0.151,1.325,0l105.996-38.432
		c1.046-0.375,1.277-1.196,1.277-1.812c0.008-0.506-0.145-1.422-1.245-1.84l-106-40.511c-0.438-0.171-0.936-0.171-1.382,0
		l-73.293,28.008c2.606,0.937,5.28,1.956,8.01,3.058c38.89,15.669,65.528,2.496,75.112-3.831c0.943-0.629,2.018-0.93,3.092-0.93
		c1.56,0,3.111,0.657,4.22,1.909c2.291,2.585,1.744,6.593-1.149,8.487c-11.667,7.654-42.092,22.353-85.495,4.863
		c-60.812-24.5-84.722-3.481-92.314,6.976l6.962,4.227L83.843,98.935c-4.323,6.977-13.372,9.302-20.519,5.273
		c-7.558-4.261-10.075-13.946-5.54-21.353l16.798-27.448l9.821,5.958c8.181-11.319,30.676-32.133,80.318-20.068l87.028-33.261
		c3.037-1.163,6.394-1.163,9.443,0l106.001,40.518C372.659,50.64,376.073,55.914,375.696,61.837z"/>
	<g>
		<defs>
			<rect id="SVGID_1_" x="122.171" y="106.752" width="265.802" height="391.248"/>
		</defs>
		<use xlink:href="#SVGID_1_"  overflow="visible" fill="#FFFFFF"/>
		<clipPath id="SVGID_2_">
			<use xlink:href="#SVGID_1_"  overflow="visible"/>
		</clipPath>
		<g clip-path="url(#SVGID_2_)">
			<path fill="#FFFFFF" d="M307.272,108.052l-46.29,16.778c-1.457,0.526-2.982,0.793-4.514,0.793c-1.525,0-3.058-0.267-4.51-0.793
				l-47.91-17.373c-21.579,74.709-80.681,135.062-80.681,135.062c17.045,20.02,33.768,45.613,49.424,74.087l47.461,102.478
				c8.848,22.728,23.027,57.597,29.587,78.929l-1.477-108.715c0.731-16.101,0.765-97.268,0.354-132.873
				c-5.17-2.627-8.721-7.99-8.721-14.194c0-8.679,6.951-15.723,15.574-15.901c8.625,0.178,15.574,7.222,15.574,15.901
				c0,6.204-3.549,11.567-8.721,14.194c-0.41,35.605-0.375,116.766,0.356,132.873l-1.478,108.715
				c6.559-21.34,20.737-56.208,29.589-78.929l47.46-102.478c15.656-28.475,32.379-54.067,49.422-74.087
				C387.781,242.525,328.987,182.488,307.272,108.052z"/>
		</g>
	</g>
	<g>
		<g transform="translate(201.382092, 315.123911)">
		</g>
	</g>
</g>
</svg>
